<?xml version="1.0" encoding="UTF-8"?>
<svg width="210px" height="78px" viewBox="0 0 210 78" version="1.1" xmlns="http://www.w3.org/2000/svg" xmlns:xlink="http://www.w3.org/1999/xlink">
    <title>01 subject matter</title>
    <g id="----→-Iterations" stroke="none" stroke-width="1" fill="none" fill-rule="evenodd">
        <g id="Artboard" transform="translate(-70.000000, -178.000000)" fill="#000000" fill-rule="nonzero">
            <g id="01-subject-matter" transform="translate(70.000000, 178.000000)">
                <path d="M121.79776,37.456 C122.59776,37.456 123.97376,37.232 126.05376,36.72 C128.67776,36.048 130.53376,35.312 131.58976,34.448 C132.51776,33.712 132.93376,33.008 132.93376,32.272 C132.93376,31.376 132.29376,30.48 131.20576,29.616 C133.31776,28.336 135.36576,27.248 137.98976,25.744 C138.18176,25.648 138.59776,25.552 138.78976,25.424 C138.85376,25.392 138.94976,25.264 138.94976,25.136 C138.94976,25.104 138.94976,25.04 138.91776,24.976 C138.85376,24.88 138.75776,24.848 138.69376,24.848 C138.59776,24.848 138.50176,24.88 138.43776,24.912 C135.52576,26.576 133.15776,27.952 130.82176,29.328 C126.91776,26.448 120.19776,24.272 120.19776,19.76 C120.19776,17.392 122.05376,14.352 127.20576,10.224 C129.76576,8.176 131.71776,7.248 133.12576,7.152 L133.25376,7.152 C134.05376,7.152 134.66176,7.408 135.07776,7.888 C135.65376,8.592 135.87776,9.424 135.87776,10.352 C135.87776,12.496 134.66176,14.96 133.95776,16.56 C133.95776,16.496 133.92576,16.432 133.86176,16.4 L133.79776,16.4 C133.70176,16.4 133.60576,16.528 133.44576,16.688 C132.80576,17.84 132.64576,18.448 132.58176,18.832 C132.58176,18.896 132.54976,18.992 132.54976,19.088 C132.54976,19.312 132.64576,19.536 132.99776,19.568 L133.02976,19.568 C133.34976,19.568 133.57376,19.216 133.66976,19.024 C134.72576,17.04 136.38976,13.616 136.38976,10.736 C136.38976,9.552 136.13376,8.464 135.39776,7.632 C134.88576,7.056 134.24576,6.736 133.38176,6.736 L133.12576,6.736 C131.62176,6.832 129.57376,7.792 126.94976,9.904 C121.70176,14.128 119.74976,17.232 119.74976,19.728 C119.74976,23.064 123.16976,25.284 126.71576,27.495 L127.534805,28.0055749 C127.625725,28.0623996 127.716562,28.1192745 127.807259,28.176218 L128.349328,28.5188534 C128.978754,28.9199053 129.595914,29.3261538 130.18176,29.744 C126.56576,31.888 123.81376,33.68 122.24576,34.96 C121.15776,35.824 120.64576,36.464 120.64576,36.912 C120.64576,37.072 120.74176,37.2 120.90176,37.296 C121.09376,37.392 121.38176,37.456 121.79776,37.456 Z M121.73376,37.072 C121.50976,37.072 121.31776,37.072 121.22176,37.008 C121.12576,36.976 121.09376,36.912 121.09376,36.816 C121.09376,36.496 121.70176,35.952 122.50176,35.28 C124.06976,34 126.88576,32.208 130.53376,30 C131.49376,30.736 132.29376,31.6 132.29376,32.496 C132.29376,33.04 132.03776,33.584 131.33376,34.128 C130.30976,34.928 128.51776,35.664 125.95776,36.304 C124.00576,36.784 122.53376,37.072 121.73376,37.072 Z M139.2064,30.256 C140.5504,30.256 142.0544,27.632 143.1744,25.072 C143.1424,25.296 143.1104,25.552 143.1104,25.808 C143.1104,26.864 143.4944,28.112 144.3904,28.304 C144.5824,28.368 144.8064,28.368 145.0304,28.368 C147.5264,28.368 150.8544,25.488 150.8864,25.488 C150.9504,25.36 150.9824,25.264 150.9824,25.168 C150.9824,25.008 150.8544,24.88 150.6944,24.88 C150.5984,24.88 150.5024,24.912 150.4064,25.008 C150.3744,25.008 147.3664,28.208 145.1264,28.208 C144.9664,28.208 144.8064,28.176 144.6464,28.144 C143.9744,27.984 143.7504,27.312 143.7504,26.48 C143.7504,25.264 144.2624,23.696 144.5184,23.088 C144.5824,22.992 144.5824,22.896 144.5824,22.8 C144.5824,22.608 144.4224,22.512 144.1984,22.512 C143.9104,22.512 143.5904,22.64 143.4944,22.864 L143.4944,22.992 C143.4944,24.432 140.9664,29.744 139.3984,29.744 L139.2704,29.744 C138.9184,29.552 138.7584,28.944 138.7584,28.08 C138.7584,26.992 139.0144,25.552 139.4624,24.176 C139.6544,23.632 140.0704,23.6 140.1344,23.344 L140.1344,23.184 C140.1344,22.736 139.8464,22.448 139.5264,22.448 C139.2064,22.448 138.8224,22.704 138.6624,23.344 C138.6624,23.344 137.8304,25.808 137.8304,27.824 C137.8304,28.88 138.0864,29.808 138.7904,30.16 C138.9184,30.224 139.0464,30.256 139.2064,30.256 Z M157.86304,33.584 C159.23904,33.392 160.48704,31.76 161.25504,29.872 L161.76704,28.4 C161.99104,27.536 162.11904,26.672 162.11904,25.936 C162.11904,25.456 162.08704,25.008 161.95904,24.624 C161.70304,23.792 161.03104,23.472 160.35904,23.472 C159.81504,23.472 159.27104,23.664 158.88704,23.952 C157.25504,25.104 154.21504,29.424 152.77504,29.904 C152.67904,29.936 152.55104,29.936 152.45504,29.936 C152.00704,29.936 151.59104,29.648 151.23904,28.88 C151.07904,28.528 150.98304,27.952 150.98304,27.216 C150.98304,26.832 151.01504,26.448 151.04704,26 C151.71904,25.424 152.39104,24.816 152.99904,24.112 C155.07904,21.84 156.74304,18.992 157.70304,16.56 C158.31104,15.024 158.63104,13.648 158.63104,12.624 C158.63104,11.952 158.50304,11.44 158.21504,11.12 L158.11904,11.024 C157.76704,10.704 157.38304,10.544 156.99904,10.544 C153.76704,10.608 150.18304,21.552 150.18304,26.896 C150.18304,27.856 150.31104,28.656 150.56704,29.136 C150.98304,30 151.65504,30.32 152.29504,30.32 C152.51904,30.32 152.74304,30.288 152.93504,30.224 C154.53504,29.712 157.38304,25.488 159.11104,24.24 C159.43104,24.016 159.87904,23.824 160.32704,23.824 C160.77504,23.824 161.15904,24.016 161.35104,24.592 C161.44704,24.88 161.47904,25.168 161.47904,25.488 C161.47904,27.92 159.27104,31.376 157.95904,32.336 C157.86304,32.4 157.79904,32.432 157.73504,32.432 C157.28704,32.432 157.44704,30.736 156.99904,30.16 C156.96704,29.968 156.74304,29.872 156.45504,29.872 C156.00704,29.872 155.43104,30.16 155.43104,30.736 L155.431634,30.9261875 C155.44054,31.2215 155.58304,33.584 157.86304,33.584 Z M151.07904,25.456 C151.36704,22.8 153.86304,10.96 157.06304,10.928 L157.15904,10.928 C157.41504,10.928 157.63904,11.056 157.89504,11.28 C157.92704,11.28 157.92704,11.312 157.95904,11.312 C158.18304,11.568 158.27904,11.984 158.27904,12.528 C158.27904,13.52 157.95904,14.864 157.35104,16.4 C156.39104,18.8 154.75904,21.584 152.71104,23.856 C152.19904,24.432 151.65504,24.944 151.07904,25.456 Z M166.31168,20.848 C166.50368,20.848 166.75968,20.56 166.82368,20.176 C166.82368,20.112 166.85568,20.016 166.85568,19.952 C166.85568,19.696 166.75968,19.504 166.56768,19.504 C166.34368,19.504 166.11968,19.792 166.05568,20.176 C166.02368,20.272 166.02368,20.336 166.02368,20.432 C166.02368,20.688 166.15168,20.848 166.31168,20.848 Z M165.95968,26.896 C167.11168,26.064 168.74368,25.648 169.63968,25.52 C170.11968,25.424 169.95968,25.456 170.43968,25.424 C170.72768,25.36 170.85568,25.456 170.88768,25.2 C170.88768,25.072 170.79168,25.04 170.63168,25.04 C170.53568,25.04 170.37568,25.072 170.21568,25.104 C169.06368,25.328 167.07968,25.968 165.99168,26.608 C166.05568,26.16 166.11968,26 166.15168,25.68 C166.21568,25.584 166.24768,25.456 166.24768,25.328 C166.24768,25.328 166.24768,25.296 166.21568,25.264 C166.31168,24.848 166.43968,24.112 166.43968,23.568 C166.43968,23.248 166.37568,22.96 166.24768,22.864 C166.18368,22.8 166.08768,22.768 166.02368,22.768 C165.44768,22.768 165.25568,25.008 165.15968,25.296 C165.15968,25.616 165.31968,25.904 165.54368,26 C165.51168,26.384 165.44768,26.576 165.41568,27.024 C163.11168,28.72 160.87168,31.696 159.91168,34.64 C159.59168,35.536 159.30368,36.944 159.30368,38.224 C159.30368,39.632 159.65568,40.88 160.80768,41.136 C159.81568,40.912 159.49568,39.76 159.49568,38.448 C159.49568,37.104 159.81568,35.632 160.10368,34.736 C160.96768,31.984 163.17568,29.008 165.41568,27.28 C165.09568,29.552 164.67968,31.952 164.48768,33.072 C164.121135,34.8436364 163.200606,40.6097851 161.419944,41.1303201 L161.15968,41.168 C163.84768,41.168 165.54368,29.424 165.95968,26.896 Z M172.58432,29.232 C174.95232,29.232 177.73632,27.088 179.27232,25.52 C179.30432,25.488 179.30432,25.456 179.30432,25.424 C179.30432,25.296 179.17632,25.104 179.01632,25.104 C178.95232,25.104 178.92032,25.136 178.85632,25.168 C178.72832,25.264 178.69632,25.552 178.60032,25.68 C177.12832,27.216 174.72832,29.008 172.52032,29.008 C172.39232,29.008 172.23232,28.976 172.10432,28.976 C171.27232,28.88 170.53632,28.048 170.53632,26.96 C170.53632,26.832 170.56832,26.736 170.56832,26.608 C170.56832,26.512 170.69632,26.448 170.82432,26.416 C171.24032,26.256 173.48032,25.36 174.15232,24.368 C174.34432,24.112 174.40832,23.856 174.40832,23.632 C174.40832,23.184 174.08832,22.832 173.48032,22.832 L173.32032,22.832 C172.74432,22.832 171.78432,23.28 171.11232,23.984 C170.34432,24.752 170.08832,25.712 170.05632,26.576 L170.05632,26.736 C170.05632,27.952 170.76032,28.976 172.00832,29.168 C172.20032,29.2 172.39232,29.232 172.58432,29.232 Z M171.17632,25.552 C171.43232,24.688 173.00032,23.728 173.44832,23.728 C173.51232,23.728 173.54432,23.728 173.54432,23.792 C173.54432,23.856 173.51232,23.952 173.44832,24.048 C172.77632,24.752 171.91232,25.264 171.17632,25.552 Z M180.13696,29.616 C180.29696,29.616 180.45696,29.616 180.64896,29.584 C183.17696,29.232 186.44096,26.48 187.40096,25.296 C187.43296,25.264 187.43296,25.2 187.43296,25.168 C187.43296,25.008 187.33696,24.912 187.20896,24.912 C187.14496,24.912 187.04896,24.944 186.98496,25.008 C186.18496,25.744 182.72896,28.912 180.68096,29.296 C180.48896,29.328 180.32896,29.36 180.16896,29.36 C179.17696,29.36 178.82496,28.72 178.82496,27.824 C178.82496,26.032 180.32896,23.216 181.25696,22.736 C181.38496,22.704 181.44896,22.672 181.51296,22.672 C181.73696,22.736 181.80096,22.928 181.80096,23.152 C181.80096,23.696 181.44896,24.464 181.44896,24.784 C181.44896,24.848 181.44896,24.88 181.48096,24.912 C181.51296,25.232 181.70496,25.392 181.89696,25.392 C182.12096,25.392 182.34496,25.232 182.40896,24.976 C182.40896,24.976 182.47296,24.528 182.47296,23.952 C182.47296,23.184 182.34496,22.224 181.60896,22.128 L181.51296,22.128 C181.35296,22.128 181.19296,22.192 181.03296,22.256 C179.40096,23.056 178.15296,25.52 178.15296,27.376 C178.15296,28.624 178.72896,29.616 180.13696,29.616 Z M188.2976,31.376 C190.0256,31.376 192.6496,28.144 194.0576,26.032 C194.1536,25.904 194.4096,25.68 194.4736,25.552 C194.5376,25.52 194.5696,25.456 194.5696,25.36 C194.5696,25.232 194.4416,25.104 194.3136,25.104 C194.2176,25.104 194.0896,25.168 193.9936,25.296 C193.8016,25.808 193.4816,26.224 192.9376,27.088 C192.3936,27.92 189.4816,31.056 188.3296,31.152 L188.1696,31.152 C187.4656,31.152 187.1456,30.544 187.1456,29.104 C187.1456,28.528 187.2096,27.824 187.3056,26.96 C187.5936,24.176 189.0976,17.36 189.3536,16.144 C192.9696,15.376 196.6176,14.448 200.4896,14.096 C201.3856,14.032 202.3136,13.968 203.1776,13.968 C204.4576,13.968 205.6096,14.064 206.4736,14.192 C207.8496,14.384 208.6816,14.768 208.7776,15.504 C208.5856,15.632 208.5536,15.728 208.5536,15.824 L208.5536,15.952 C208.5856,16.08 208.7136,16.176 208.8416,16.176 C209.0016,16.176 209.1616,16.08 209.2256,15.888 C209.2576,15.792 209.2576,15.728 209.2576,15.664 C209.2576,15.6 209.2576,15.504 209.2256,15.44 C209.1296,14.512 208.1056,13.968 206.5376,13.744 C205.8656,13.648 205.0976,13.616 204.2656,13.616 C203.2096,13.616 202.0256,13.68 200.7456,13.808 C196.8416,14.16 193.1296,15.056 189.4496,15.824 C189.7696,15.024 191.4016,11.632 191.4016,10.544 C191.4016,10.416 191.3696,10.352 191.3376,10.288 C191.2736,10.192 191.1776,10.128 191.0816,10.128 C190.6336,10.128 189.9616,11.152 189.3536,13.52 C189.1616,14.224 188.9696,15.056 188.7776,15.984 C187.0496,16.336 185.5776,16.688 184.4896,16.944 C183.9136,16.752 182.1856,16.368 181.0336,16.368 C180.6176,16.368 180.2656,16.4 180.1056,16.56 L180.0736,16.56 C180.0736,16.56 180.0736,16.592 180.0416,16.624 C180.0416,16.656 180.0096,16.656 180.0096,16.688 C179.9456,16.816 179.8176,17.04 179.8176,17.264 C179.8176,17.552 180.0416,17.84 181.0016,17.84 C181.6736,17.84 182.7616,17.68 184.3936,17.264 C184.4896,17.264 184.5536,17.232 184.6176,17.2 C185.4176,17.552 186.3136,18.192 186.8256,18.928 C187.2736,19.6 187.5616,20.432 187.5936,21.456 C187.1136,23.92 186.7616,26.352 186.7616,28.144 C186.7616,29.296 186.9216,30.192 187.2416,30.736 C187.5296,31.184 187.8816,31.376 188.2976,31.376 Z M187.7536,20.624 C187.6256,19.888 187.3696,19.312 187.0496,18.8 C186.5376,18.096 185.7376,17.488 185.0016,17.136 C185.9936,16.88 187.2736,16.592 188.7136,16.272 C188.3936,17.616 188.0416,19.12 187.7536,20.624 Z M180.9696,17.552 C180.2656,17.552 180.0736,17.36 180.0736,17.168 C180.0736,17.072 180.1376,16.976 180.2016,16.88 C180.3616,16.688 180.7456,16.624 181.2256,16.624 C182.1216,16.624 183.3056,16.88 184.0416,17.072 C182.5376,17.424 181.5776,17.552 180.9696,17.552 Z M123.7024,63.776 C123.9584,63.776 124.2784,63.552 124.5984,62.976 C125.4944,61.44 128.8544,53.344 130.6464,53.344 C130.7424,53.344 130.8384,53.344 130.9344,53.408 C131.1264,53.504 131.2864,53.792 131.2864,54.24 C131.2864,54.368 131.2864,54.496 131.2544,54.624 C131.0624,56.64 129.9104,60.736 129.6544,61.664 C129.6224,61.76 129.6224,61.856 129.6224,61.92 C129.6224,62.176 129.7824,62.304 129.9744,62.304 C130.1024,62.304 130.2944,62.24 130.4544,62.08 L130.4864,62.048 L130.5184,62.048 C130.5184,62.048 132.2464,59.52 133.3984,59.232 C133.4624,59.232 133.4944,59.2 133.5264,59.2 C134.2944,59.2 133.9424,61.056 135.1904,61.76 C135.5744,61.984 136.0544,62.08 136.5344,62.08 C138.6464,62.08 141.4944,60.384 142.8064,59.392 C142.8704,59.328 142.8704,59.264 142.8704,59.2 C142.8704,59.136 142.8384,59.04 142.7424,59.04 C142.7104,59.04 142.6464,59.072 142.5824,59.104 C142.4544,59.2 142.2944,59.456 142.1664,59.52 C141.0144,60.384 138.6784,61.76 136.8864,61.76 C136.4384,61.76 135.9904,61.664 135.6384,61.472 C134.5184,60.8 134.8384,58.656 133.7504,58.656 C133.6864,58.656 133.6224,58.656 133.5584,58.688 C132.6624,58.912 131.2864,60.544 130.5824,61.408 L130.7104,60.864 L130.687881,60.8651852 L130.687881,60.8651852 L130.686,60.867 C130.706844,60.7885432 130.756622,60.5866667 130.8064,60.288 C131.0624,58.976 131.6384,55.84 131.6704,54.528 L131.6704,54.432 C131.6704,53.728 131.2864,53.248 130.7744,53.12 L130.5824,53.088 L130.5824,53.088 C128.5024,53.088 125.4624,59.904 124.3104,61.952 C124.3104,61.952 124.8224,60.192 125.1424,58.944 C125.1744,58.784 125.2064,58.656 125.2064,58.528 C125.2064,58.016 124.8864,57.76 124.5664,57.76 C124.3424,57.76 124.0864,57.888 123.9584,58.176 C123.8304,58.4 123.5744,59.104 123.5104,59.712 C123.5104,59.776 123.6384,60.096 123.6384,60.224 L123.6384,60.256 C123.5104,61.408 123.1584,62.592 123.1584,63.136 C123.1584,63.2 123.1584,63.264 123.1904,63.328 C123.2864,63.584 123.4784,63.776 123.7024,63.776 Z M156.02304,65.376 C157.75104,65.376 160.40704,62.144 161.81504,60 C161.91104,59.872 162.16704,59.648 162.23104,59.52 C162.29504,59.488 162.32704,59.424 162.32704,59.328 C162.32704,59.2 162.19904,59.072 162.07104,59.072 C161.97504,59.072 161.84704,59.136 161.75104,59.264 C161.55904,59.776 161.23904,60.192 160.69504,61.056 C160.15104,61.92 157.20704,65.056 156.05504,65.152 L155.89504,65.152 C155.19104,65.152 154.87104,64.544 154.87104,63.104 C154.87104,62.528 154.93504,61.824 155.03104,60.928 C155.28704,58.336 156.59904,52.224 157.01504,50.4 C157.49504,50.272 157.91104,50.144 158.13504,50.112 C160.02304,49.696 167.09504,47.52 172.37504,47.52 C175.70304,47.52 178.29504,48.384 178.39104,51.104 C178.39104,51.168 178.45504,51.168 178.55104,51.168 C178.64704,51.168 178.74304,51.168 178.80704,51.136 C178.93504,51.136 179.03104,51.008 179.03104,50.848 C178.93504,48.16 176.18304,47.296 172.66304,47.296 C167.12704,47.296 159.76704,49.408 157.97504,49.824 C157.81504,49.856 157.49504,49.952 157.11104,50.048 L157.17504,49.728 C157.49504,48.928 159.12704,45.504 159.12704,44.416 C159.12704,44.288 159.09504,44.224 159.06304,44.16 C158.99904,44.064 158.90304,44 158.80704,44 C158.35904,44 157.68704,45.024 157.07904,47.424 C156.91904,47.968 156.79104,48.576 156.63104,49.248 L156.63104,49.28 L156.59904,49.44 L156.50304,49.888 L156.50304,49.888 C156.47104,49.984 156.40704,50.112 156.37504,50.24 C154.19904,50.848 150.39104,51.808 147.70304,51.808 C145.94304,51.808 144.63104,51.392 144.63104,50.144 L144.63104,50.08 C144.63104,45.344 151.67104,42.24 157.27104,42.24 C159.19104,42.24 160.91904,42.624 162.16704,43.392 C162.90304,43.84 163.25504,44.288 163.41504,45.056 C163.51104,45.216 163.67104,45.28 163.83104,45.28 C164.05504,45.28 164.27904,45.152 164.31104,44.96 C164.34304,44.896 164.37504,44.832 164.37504,44.8 C164.37504,44.704 164.34304,44.64 164.27904,44.576 C163.54304,43.488 162.83904,43.136 162.00704,42.72 C160.88704,42.176 159.38304,41.92 157.71904,41.92 C151.99104,41.92 144.47104,45.024 144.47104,49.984 L144.47104,50.048 C144.47104,51.616 145.94304,52.128 147.92704,52.128 C150.55104,52.128 154.03904,51.232 156.24704,50.624 C154.74304,54.944 153.39904,57.888 152.05504,59.776 C150.58304,61.824 149.33504,62.528 148.53504,62.528 C148.43904,62.528 148.31104,62.528 148.21504,62.496 C147.51104,62.272 147.25504,61.44 147.22304,60.64 L147.22304,60.416 C147.22304,59.584 147.41504,58.784 147.41504,57.984 C147.41504,57.44 147.22304,57.216 146.87104,57.216 C146.61504,57.216 146.23104,57.504 145.81504,57.952 C145.59104,57.728 145.36704,57.536 145.07904,57.44 C144.95104,57.408 144.82304,57.376 144.69504,57.376 C142.96704,57.376 141.33504,61.024 141.30304,62.336 C141.30304,62.592 141.30304,62.784 141.36704,62.912 C141.43104,63.136 141.62304,63.328 141.81504,63.328 L141.87904,63.328 C142.07104,63.328 142.29504,63.2 142.45504,63.04 C142.58304,62.912 142.90304,62.464 143.31904,61.888 C143.99104,60.896 144.66304,59.936 145.75104,58.688 C145.81504,58.784 145.81504,58.912 145.81504,59.072 L145.81504,59.552 C145.81504,59.808 145.84704,60 146.00704,60 L146.10304,60 C146.23104,60 146.35904,59.936 146.45504,59.776 C146.48704,59.712 146.48704,59.616 146.48704,59.52 C146.48704,59.136 146.26304,58.592 146.07104,58.272 C146.42304,57.92 146.71104,57.664 146.87104,57.664 C146.93504,57.664 146.96704,57.76 146.96704,57.984 C146.96704,58.592 146.87104,59.392 146.87104,60.16 C146.87104,61.312 147.09504,62.432 148.15104,62.752 C148.24704,62.784 148.37504,62.816 148.50304,62.816 C149.39904,62.816 150.71104,61.984 152.24704,59.808 C153.33504,58.304 154.55104,56.096 155.83104,53.024 L155.31904,55.392 C154.83904,57.888 154.45504,60.32 154.45504,62.144 C154.45504,63.296 154.61504,64.192 154.96704,64.736 C155.25504,65.184 155.60704,65.376 156.02304,65.376 Z M142.19904,62.56 L142.19904,62.528 C142.19904,62.112 143.57504,58.08 144.91904,58.08 C145.11104,58.08 145.30304,58.144 145.49504,58.336 C144.63104,59.2 143.67104,60.608 142.96704,61.6 C142.55104,62.176 142.42304,62.368 142.29504,62.464 C142.23104,62.56 142.19904,62.56 142.19904,62.56 Z M163.09568,65.376 C164.82368,65.376 167.44768,62.144 168.85568,60.032 C168.95168,59.904 169.20768,59.68 169.27168,59.552 C169.33568,59.52 169.36768,59.456 169.36768,59.36 C169.36768,59.232 169.23968,59.104 169.11168,59.104 C169.01568,59.104 168.88768,59.168 168.79168,59.296 C168.59968,59.808 168.27968,60.224 167.73568,61.088 C167.19168,61.92 164.27968,65.056 163.12768,65.152 L162.96768,65.152 C162.26368,65.152 161.94368,64.544 161.94368,63.104 C161.94368,62.528 162.00768,61.824 162.10368,60.96 C162.39168,58.176 163.89568,51.36 164.15168,50.144 C167.76768,49.376 171.41568,48.448 175.28768,48.096 C176.18368,48.032 177.11168,47.968 177.97568,47.968 C179.25568,47.968 180.40768,48.064 181.27168,48.192 C182.64768,48.384 183.47968,48.768 183.57568,49.504 C183.38368,49.632 183.35168,49.728 183.35168,49.824 L183.35168,49.952 C183.38368,50.08 183.51168,50.176 183.63968,50.176 C183.79968,50.176 183.95968,50.08 184.02368,49.888 C184.05568,49.792 184.05568,49.728 184.05568,49.664 C184.05568,49.6 184.05568,49.504 184.02368,49.44 C183.92768,48.512 182.90368,47.968 181.33568,47.744 C180.66368,47.648 179.89568,47.616 179.06368,47.616 C178.00768,47.616 176.82368,47.68 175.54368,47.808 C171.63968,48.16 167.92768,49.056 164.24768,49.824 C164.56768,49.024 166.19968,45.632 166.19968,44.544 C166.19968,44.416 166.16768,44.352 166.13568,44.288 C166.07168,44.192 165.97568,44.128 165.87968,44.128 C165.43168,44.128 164.75968,45.152 164.15168,47.52 C163.95968,48.224 163.76768,49.056 163.57568,49.984 C161.84768,50.336 160.37568,50.688 159.28768,50.944 C158.71168,50.752 156.98368,50.368 155.83168,50.368 C155.41568,50.368 155.06368,50.4 154.90368,50.56 L154.87168,50.56 C154.87168,50.56 154.87168,50.592 154.83968,50.624 C154.83968,50.656 154.80768,50.656 154.80768,50.688 C154.74368,50.816 154.61568,51.04 154.61568,51.264 C154.61568,51.552 154.83968,51.84 155.79968,51.84 C156.47168,51.84 157.55968,51.68 159.19168,51.264 C159.28768,51.264 159.35168,51.232 159.41568,51.2 C160.21568,51.552 161.11168,52.192 161.62368,52.928 C162.07168,53.6 162.35968,54.432 162.39168,55.456 C161.91168,57.92 161.55968,60.352 161.55968,62.144 C161.55968,63.296 161.71968,64.192 162.03968,64.736 C162.32768,65.184 162.67968,65.376 163.09568,65.376 Z M162.55168,54.624 C162.42368,53.888 162.16768,53.312 161.84768,52.8 C161.33568,52.096 160.53568,51.488 159.79968,51.136 C160.79168,50.88 162.07168,50.592 163.51168,50.272 C163.19168,51.616 162.83968,53.12 162.55168,54.624 Z M155.76768,51.552 C155.06368,51.552 154.87168,51.36 154.87168,51.168 C154.87168,51.072 154.93568,50.976 154.99968,50.88 C155.15968,50.688 155.54368,50.624 156.02368,50.624 C156.91968,50.624 158.10368,50.88 158.83968,51.072 C157.33568,51.424 156.37568,51.552 155.76768,51.552 Z M171.12832,63.232 C173.49632,63.232 176.28032,61.088 177.81632,59.52 C177.84832,59.488 177.84832,59.456 177.84832,59.424 C177.84832,59.296 177.72032,59.104 177.56032,59.104 C177.49632,59.104 177.46432,59.136 177.40032,59.168 C177.27232,59.264 177.24032,59.552 177.14432,59.68 C175.67232,61.216 173.27232,63.008 171.06432,63.008 C170.93632,63.008 170.77632,62.976 170.64832,62.976 C169.81632,62.88 169.08032,62.048 169.08032,60.96 C169.08032,60.832 169.11232,60.736 169.11232,60.608 C169.11232,60.512 169.24032,60.448 169.36832,60.416 C169.78432,60.256 172.02432,59.36 172.69632,58.368 C172.88832,58.112 172.95232,57.856 172.95232,57.632 C172.95232,57.184 172.63232,56.832 172.02432,56.832 L171.86432,56.832 C171.28832,56.832 170.32832,57.28 169.65632,57.984 C168.88832,58.752 168.63232,59.712 168.60032,60.576 L168.60032,60.736 C168.60032,61.952 169.30432,62.976 170.55232,63.168 C170.74432,63.2 170.93632,63.232 171.12832,63.232 Z M169.72032,59.552 C169.97632,58.688 171.54432,57.728 171.99232,57.728 C172.05632,57.728 172.08832,57.728 172.08832,57.792 C172.08832,57.856 172.05632,57.952 171.99232,58.048 C171.32032,58.752 170.45632,59.264 169.72032,59.552 Z M177.43296,64.736 C177.68896,64.736 177.97696,64.64 178.04096,64.448 C178.04096,64.416 180.05696,54.72 181.75296,54.72 C181.91296,54.72 182.07296,54.816 182.23296,55.008 C183.60896,58.272 184.56896,59.52 187.06496,59.52 C187.89696,59.52 188.88896,59.392 190.13696,59.136 C190.32896,59.104 190.42496,59.008 190.42496,58.88 C190.42496,58.752 190.32896,58.624 190.20096,58.496 C189.94496,58.56 189.52896,58.848 189.27296,58.88 C188.21696,59.072 187.35296,59.168 186.64896,59.168 C185.72096,59.168 185.08096,58.976 184.60096,58.56 C183.86496,57.888 183.38496,55.68 182.61696,54.624 C182.39296,54.336 182.16896,54.176 181.91296,54.176 C180.56896,54.176 179.06496,58.464 178.10496,61.44 L178.71296,57.664 C178.71296,57.376 178.45696,57.248 178.20096,57.248 C177.94496,57.248 177.65696,57.376 177.56096,57.568 C177.24096,58.272 177.24096,58.72 177.24096,58.976 L177.24096,59.04 C177.24096,59.296 177.30496,59.616 177.52896,59.744 L176.95296,64.448 C176.95296,64.64 177.17696,64.736 177.43296,64.736 Z" id="Subjectmatter" stroke="#1D1D1B" stroke-width="0.5"></path>
                <path d="M20.7776,61.12 C31.6576,61.12 41.0976,49.2 41.0976,33.52 C41.0976,17.76 32.2976,6.08 21.0176,6.08 C10.1376,6.08 0.6976,18.08 0.6976,33.84 C0.6976,49.6 9.4976,61.12 20.7776,61.12 Z M21.0176,60.4 C12.3776,60.4 7.4176,53.28 7.4176,33.68 C7.4176,13.92 12.2176,6.8 20.7776,6.8 C29.4176,6.8 34.3776,14.08 34.3776,33.68 C34.3776,53.44 29.5776,60.4 21.0176,60.4 Z M73.7392,60 L73.7392,59.6 C64.1392,59.52 62.5392,58.88 62.5392,54.24 L62.5392,6.72 L45.8992,8.08 L45.8992,8.4 C56.0592,8.56 56.6992,8.96 56.6992,14.24 L56.6992,54.24 C56.6992,59.04 54.9392,59.52 45.4992,59.6 L45.4992,60 L73.7392,60 Z M74.2208,77.2 L90.9408,38.96 L107.9808,0.32 L106.7008,0.32 L89.9808,38.64 L72.9408,77.2 L74.2208,77.2 Z" id="01/"></path>
            </g>
        </g>
    </g>
</svg>