<?xml version="1.0" encoding="UTF-8"?>
<svg width="209px" height="78px" viewBox="0 0 209 78" version="1.1" xmlns="http://www.w3.org/2000/svg" xmlns:xlink="http://www.w3.org/1999/xlink">
    <title>02 Artwork size</title>
    <g id="----→-Iterations" stroke="none" stroke-width="1" fill="none" fill-rule="evenodd">
        <g id="Artboard" transform="translate(-328.000000, -178.000000)" fill="#000000" fill-rule="nonzero">
            <g id="02-Artwork-size" transform="translate(328.000000, 178.000000)">
                <path d="M143.43776,40.392 L143.56576,40.04 C143.05376,39.816 142.86176,38.856 142.86176,37.416 C142.86176,32.744 144.97376,23.272 145.42176,20.712 C145.83776,20.648 146.44576,20.584 147.02176,20.584 C147.53376,20.584 148.01376,20.648 148.20576,20.904 L148.30176,20.936 L148.30176,20.936 C148.39776,20.936 148.49376,20.872 148.55776,20.808 C148.62176,20.712 148.65376,20.648 148.65376,20.552 C148.65376,20.2 147.88576,20.072 147.02176,20.072 C146.50976,20.072 145.96576,20.136 145.51776,20.168 C145.67776,19.272 146.57376,15.048 146.57376,11.848 C146.57376,9.736 146.18976,8.04 144.94176,8.04 L144.78176,8.04 C142.389189,8.31257143 139.623995,14.0884898 137.110116,20.4305077 L136.826633,21.150625 C136.779576,21.2709592 136.732617,21.3914286 136.68576,21.512 C135.59776,21.672 134.76576,22.024 133.90176,22.184 C134.63776,19.72 135.24576,17.864 135.24576,17.864 L134.63776,17.8 C134.63776,17.8 133.99776,19.72 133.26176,22.312 C132.58976,22.44 130.79776,22.952 129.83776,22.952 C129.64576,22.952 129.48576,22.92 129.35776,22.888 L129.19776,23.208 C129.35776,23.272 129.58176,23.304 129.83776,23.304 C130.82976,23.304 132.39776,22.856 133.13376,22.696 C131.91776,26.856 130.54176,32.168 130.54176,34.504 C130.54176,35.144 130.63776,35.528 130.86176,35.656 C130.89376,35.688 130.92576,35.688 130.98976,35.688 C131.72576,35.688 133.05376,32.624 134.26976,29.388 L134.511258,28.7393636 C135.629333,25.7096889 136.60896,22.6981333 136.87776,22.056 C139.40576,21.608 141.96576,21.16 144.52576,20.84 C144.07776,23.368 142.34976,31.56 142.34976,36.52 C142.34976,38.568 142.63776,40.072 143.43776,40.392 Z M137.10176,21.416 L137.24336,21.0585959 L137.24336,21.0585959 L137.527785,20.3468713 C139.999437,14.1998678 142.635433,8.66603636 144.81376,8.424 L144.90976,8.424 C145.67776,8.424 145.93376,9.544 145.93376,11.08 C145.93376,14.344 144.74976,19.56 144.62176,20.296 C142.09376,20.616 139.59776,21 137.10176,21.416 Z M131.11776,35.144 L131.08576,35.144 C130.92576,35.08 130.86176,34.824 130.86176,34.44 C130.86176,32.456 132.52576,26.888 133.77376,22.6 C134.63776,22.44 135.37376,22.312 136.42976,22.12 C136.213484,22.6761379 135.124647,25.730635 133.980519,28.7416711 L133.734801,29.3853016 C132.586944,32.3771605 131.442174,35.144 131.11776,35.144 Z M148.4304,29.736 C148.6864,29.736 148.9744,29.64 149.0384,29.448 C149.0384,29.416 151.0544,19.72 152.7504,19.72 C152.9104,19.72 153.0704,19.816 153.2304,20.008 C154.6064,23.272 155.5664,24.52 158.0624,24.52 C158.8944,24.52 159.8864,24.392 161.1344,24.136 C161.3264,24.104 161.4224,24.008 161.4224,23.88 C161.4224,23.752 161.3264,23.624 161.1984,23.496 C160.9424,23.56 160.5264,23.848 160.2704,23.88 C159.2144,24.072 158.3504,24.168 157.6464,24.168 C156.7184,24.168 156.0784,23.976 155.5984,23.56 C154.8624,22.888 154.3824,20.68 153.6144,19.624 C153.3904,19.336 153.1664,19.176 152.9104,19.176 C151.5664,19.176 150.0624,23.464 149.1024,26.44 L149.7104,22.664 C149.7104,22.376 149.4544,22.248 149.1984,22.248 C148.9424,22.248 148.6544,22.376 148.5584,22.568 C148.267491,23.208 148.241045,23.6364298 148.23864,23.9013734 L148.2384,24.04 C148.2384,24.296 148.3024,24.616 148.5264,24.744 L147.9504,29.448 C147.9504,29.64 148.1744,29.736 148.4304,29.736 Z M162.25504,30.376 C163.98304,30.376 166.60704,27.144 168.01504,25.032 C168.11104,24.904 168.36704,24.68 168.43104,24.552 C168.49504,24.52 168.52704,24.456 168.52704,24.36 C168.52704,24.232 168.39904,24.104 168.27104,24.104 C168.17504,24.104 168.04704,24.168 167.95104,24.296 C167.75904,24.808 167.43904,25.224 166.89504,26.088 C166.35104,26.92 163.43904,30.056 162.28704,30.152 L162.12704,30.152 C161.42304,30.152 161.10304,29.544 161.10304,28.104 C161.10304,27.528 161.16704,26.824 161.26304,25.96 C161.373809,24.8892308 161.66446,23.2220118 161.994801,21.5063632 L162.128723,20.8188199 C162.625091,18.297883 163.16663,15.8299487 163.31104,15.144 C166.92704,14.376 170.57504,13.448 174.44704,13.096 C175.34304,13.032 176.27104,12.968 177.13504,12.968 C178.41504,12.968 179.56704,13.064 180.43104,13.192 C181.80704,13.384 182.63904,13.768 182.73504,14.504 C182.54304,14.632 182.51104,14.728 182.51104,14.824 L182.51104,14.952 C182.54304,15.08 182.67104,15.176 182.79904,15.176 C182.95904,15.176 183.11904,15.08 183.18304,14.888 C183.21504,14.792 183.21504,14.728 183.21504,14.664 C183.21504,14.6 183.21504,14.504 183.18304,14.44 C183.08704,13.512 182.06304,12.968 180.49504,12.744 C179.82304,12.648 179.05504,12.616 178.22304,12.616 C177.16704,12.616 175.98304,12.68 174.70304,12.808 C170.79904,13.16 167.08704,14.056 163.40704,14.824 C163.72704,14.024 165.35904,10.632 165.35904,9.544 C165.35904,9.416 165.32704,9.352 165.29504,9.288 C165.23104,9.192 165.13504,9.128 165.03904,9.128 C164.59104,9.128 163.91904,10.152 163.31104,12.52 C163.11904,13.224 162.92704,14.056 162.73504,14.984 C161.00704,15.336 159.53504,15.688 158.44704,15.944 C157.87104,15.752 156.14304,15.368 154.99104,15.368 C154.57504,15.368 154.22304,15.4 154.06304,15.56 L154.03104,15.56 C154.03104,15.56 154.03104,15.592 153.99904,15.624 C153.99904,15.656 153.96704,15.656 153.96704,15.688 C153.90304,15.816 153.77504,16.04 153.77504,16.264 C153.77504,16.552 153.99904,16.84 154.95904,16.84 C155.63104,16.84 156.71904,16.68 158.35104,16.264 C158.44704,16.264 158.51104,16.232 158.57504,16.2 C159.37504,16.552 160.27104,17.192 160.78304,17.928 C161.23104,18.6 161.51904,19.432 161.55104,20.456 C161.07104,22.92 160.71904,25.352 160.71904,27.144 C160.71904,28.296 160.87904,29.192 161.19904,29.736 C161.48704,30.184 161.83904,30.376 162.25504,30.376 Z M161.71104,19.624 C161.58304,18.888 161.32704,18.312 161.00704,17.8 C160.49504,17.096 159.69504,16.488 158.95904,16.136 C159.95104,15.88 161.23104,15.592 162.67104,15.272 C162.35104,16.616 161.99904,18.12 161.71104,19.624 Z M154.92704,16.552 C154.22304,16.552 154.03104,16.36 154.03104,16.168 C154.03104,16.072 154.09504,15.976 154.15904,15.88 C154.31904,15.688 154.70304,15.624 155.18304,15.624 C156.07904,15.624 157.26304,15.88 157.99904,16.072 C156.49504,16.424 155.53504,16.552 154.92704,16.552 Z M172.01568,30.632 C173.13568,30.44 174.12768,26.248 174.54368,23.752 C175.05568,24.712 176.01568,25.064 177.00768,25.064 C177.67968,25.064 178.38368,24.904 178.99168,24.68 C179.08768,24.68 179.11968,24.552 179.11968,24.424 C179.11968,24.296 179.05568,24.168 178.92768,24.168 L178.89568,24.168 C178.63968,24.264 178.38368,24.552 178.19168,24.648 C177.80768,24.808 177.39168,24.872 176.97568,24.872 C176.01568,24.872 175.11968,24.456 174.76768,23.4 C174.70368,23.272 174.67168,23.144 174.67168,23.016 C174.70368,22.792 174.70368,22.568 174.73568,22.408 C174.76768,22.248 174.76768,22.088 174.76768,21.96 L174.79968,21.896 C174.79968,21.864 174.79968,21.864 174.76768,21.864 C174.76768,21.672 174.73568,21.544 174.67168,21.544 C174.60768,21.544 174.54368,21.672 174.41568,21.896 C174.38368,21.928 174.38368,21.992 174.35168,22.12 C174.31968,22.344 174.28768,22.568 174.28768,22.792 L174.28768,23.432 C174.28768,23.56 174.28768,23.72 174.25568,23.848 C173.83968,26.216 172.87968,30.12 171.95168,30.28 C171.72768,30.28 171.63168,29.256 171.63168,28.072 C171.63168,26.952 171.72768,25.672 171.79168,25.032 C171.88768,24.424 172.01568,23.944 172.01568,23.56 C172.01568,23.272 171.95168,23.08 171.79168,22.92 C171.72768,22.856 171.66368,22.824 171.56768,22.824 C171.53568,22.824 171.47168,22.824 171.40768,22.888 C171.15168,23.112 169.55168,26.92 168.84768,26.92 C168.71968,26.92 168.62368,26.792 168.55968,26.472 C168.49568,26.28 168.49568,26.024 168.49568,25.736 C168.49568,24.936 168.68768,23.944 169.03968,23.72 C169.51968,23.4 169.77568,23.752 169.96768,23.176 C169.80768,22.632 169.42368,22.408 169.07168,22.408 C168.87968,22.408 168.71968,22.472 168.59168,22.6 C168.04768,23.336 167.82368,24.488 167.82368,25.48 C167.82368,25.928 167.85568,26.376 167.95168,26.696 C168.04768,27.016 168.23968,27.304 168.59168,27.304 L168.62368,27.304 C169.314142,27.304 169.977242,26.1001183 170.523533,25.0162039 L170.80134,24.4608503 C170.978615,24.107787 171.139372,23.7987692 171.27968,23.592 C171.11968,24.36 170.92768,26.088 170.92768,27.624 C170.92768,29.224 171.15168,30.632 171.91968,30.632 L172.01568,30.632 Z M179.05632,28.392 C179.60032,28.392 180.01632,27.592 180.24032,27.208 C180.49632,26.76 180.72032,26.184 180.88032,25.576 C180.97632,25.256 181.04032,24.936 181.07232,24.616 C181.80832,24.648 182.51232,24.68 183.18432,24.68 C184.49632,24.68 185.61632,24.584 186.22432,24.232 C186.28832,24.168 186.32032,24.072 186.32032,24.008 C186.32032,23.912 186.25632,23.848 186.12832,23.848 C186.06432,23.848 186.03232,23.848 185.96832,23.88 C185.29632,24.264 183.88832,24.392 182.32032,24.392 C181.93632,24.392 181.52032,24.36 181.10432,24.36 L181.13632,23.88 L181.13632,23.88 C181.13632,23.592 181.10432,23.304 181.00832,23.016 L180.94432,22.856 C180.81632,22.568 180.52832,22.184 180.24032,22.024 C179.98432,21.896 179.69632,21.832 179.40832,21.832 C179.05632,21.832 178.70432,21.928 178.48032,22.152 L178.44832,22.152 L178.32032,22.28 C178.19232,22.472 178.09632,22.632 178.06432,22.824 L178.06432,23.016 C178.06432,23.528 178.38432,23.88 178.92832,24.136 C178.54432,24.936 178.19232,26.024 178.19232,26.952 C178.19232,27.432 178.28832,27.848 178.51232,28.168 C178.70432,28.328 178.86432,28.392 179.05632,28.392 Z M179.02432,23.976 C178.60832,23.752 178.35232,23.464 178.35232,23.08 L178.38432,22.888 L178.38432,22.888 C178.41632,22.696 178.54432,22.472 178.86432,22.312 C179.05632,22.248 179.24832,22.184 179.44032,22.184 C179.66432,22.184 179.88832,22.248 180.04832,22.344 C180.27232,22.44 180.49632,22.696 180.59232,22.92 C180.49632,22.792 180.36832,22.728 180.24032,22.728 C179.88832,22.728 179.50432,23.176 179.37632,23.4 L179.24832,23.592 L179.28032,23.592 L179.18432,23.688 L179.02432,23.976 Z M180.75232,24.36 C180.43232,24.328 180.11232,24.296 179.85632,24.232 C180.11232,23.688 180.40032,23.272 180.68832,23.176 C180.75232,23.368 180.78432,23.624 180.78432,23.88 L180.75232,24.36 L180.75232,24.36 Z M179.15232,27.944 C179.05632,27.944 178.99232,27.784 178.99232,27.528 C178.99232,26.824 179.31232,25.448 179.76032,24.424 C180.04832,24.488 180.40032,24.552 180.72032,24.584 C180.68832,24.872 180.62432,25.192 180.52832,25.512 C180.40032,26.056 180.17632,26.6 179.92032,27.016 C179.53632,27.688 179.31232,27.944 179.15232,27.944 Z M185.96896,29.736 C186.22496,29.736 186.51296,29.64 186.57696,29.448 C186.57696,29.416 188.59296,19.72 190.28896,19.72 C190.44896,19.72 190.60896,19.816 190.76896,20.008 C192.14496,23.272 193.10496,24.52 195.60096,24.52 C196.43296,24.52 197.42496,24.392 198.67296,24.136 C198.86496,24.104 198.96096,24.008 198.96096,23.88 C198.96096,23.752 198.86496,23.624 198.73696,23.496 C198.48096,23.56 198.06496,23.848 197.80896,23.88 C196.75296,24.072 195.88896,24.168 195.18496,24.168 C194.25696,24.168 193.61696,23.976 193.13696,23.56 C192.40096,22.888 191.92096,20.68 191.15296,19.624 C190.92896,19.336 190.70496,19.176 190.44896,19.176 C189.10496,19.176 187.60096,23.464 186.64096,26.44 L187.24896,22.664 C187.24896,22.376 186.99296,22.248 186.73696,22.248 C186.48096,22.248 186.19296,22.376 186.09696,22.568 C185.77696,23.272 185.77696,23.72 185.77696,23.976 L185.77696,24.04 C185.77696,24.296 185.84096,24.616 186.06496,24.744 L185.48896,29.448 C185.48896,29.64 185.71296,29.736 185.96896,29.736 Z M198.8656,33.288 C198.9296,33.288 198.9936,33.256 199.0256,33.224 C199.0576,33.192 199.0576,33.128 199.0576,33.096 C199.0576,33.064 199.0576,33 198.9936,32.968 C198.4816,32.552 198.2896,31.56 198.2896,30.184 C198.2896,28.84 198.4816,27.144 198.8016,25.32 C198.8976,27.24 200.0496,28.136 201.4896,28.136 C201.8096,28.136 202.1296,28.072 202.4496,28.008 C204.6576,27.464 207.2176,25.224 208.4656,24.296 C208.4976,24.264 208.5296,24.232 208.5296,24.168 C208.5296,24.072 208.4656,23.944 208.4336,23.88 C208.4016,23.848 208.3376,23.848 208.2736,23.848 C208.1456,23.848 208.0496,23.848 207.9856,23.88 C207.7296,24.072 207.4416,24.552 207.1856,24.712 C206.1616,25.416 204.1776,27.208 202.4176,27.688 C202.0336,27.784 201.6816,27.848 201.3616,27.848 C199.9536,27.848 199.2496,26.76 199.2496,24.84 C199.3776,23.88 201.6816,21.96 202.9616,21.256 C203.2176,21.128 203.8896,21.064 203.8896,21.064 C203.9536,21.032 204.0816,20.904 204.0816,20.744 C204.0816,20.68 204.0816,20.616 204.0176,20.552 C203.9856,20.488 203.9216,20.488 203.8256,20.488 C203.6016,20.488 203.2496,20.648 203.2176,20.68 C202.8016,20.808 199.6656,23.08 198.9296,24.648 C198.9936,24.264 199.0896,23.848 199.1536,23.464 C199.7616,20.424 200.5936,17.224 201.1376,15.816 C201.1696,15.816 201.2016,15.784 201.2016,15.752 C202.518171,12.6214857 202.63102,12.0321633 202.762976,11.4894612 L202.78824,11.3876418 C202.792588,11.37056 202.797029,11.3533714 202.8016,11.336 C202.8336,11.176 202.8656,10.984 202.8656,10.824 C202.8656,10.728 202.8336,10.632 202.8336,10.568 C202.8016,10.344 202.5456,10.216 202.3216,10.216 C202.1616,10.216 202.0016,10.28 201.9056,10.408 L201.7136,10.728 C201.6816,10.792 201.6176,10.952 201.5536,11.176 C200.7856,13.8 199.3776,18.888 198.4496,23.464 C198.0016,25.608 197.7776,27.656 197.7776,29.352 C197.7776,31.272 198.0976,32.712 198.7696,33.256 C198.8016,33.288 198.8336,33.288 198.8656,33.288 Z M151.53472,69.464 C153.29472,69.464 156.11072,66.776 156.11072,64.152 C156.11072,63.512 155.95072,62.904 155.59872,62.328 C157.00672,61.048 158.38272,59.896 160.20672,58.808 C160.27072,58.776 160.49472,58.776 160.52672,58.744 C160.75072,58.712 160.91072,58.488 160.97472,58.264 C160.94272,58.2 160.84672,58.136 160.78272,58.136 C160.75072,58.136 160.71872,58.136 160.68672,58.168 C160.52672,58.264 160.36672,58.328 160.23872,58.424 C158.31872,59.672 156.87872,60.76 155.40672,62.104 C154.51072,60.888 152.84672,59.064 152.84672,57.528 C152.84672,57.336 152.87872,57.176 152.94272,56.984 C153.10272,56.216 154.28672,54.584 155.15072,54.584 C155.40672,54.584 155.63072,54.712 155.79072,55 L155.82272,55.096 L155.82272,55.096 C155.82272,55.384 155.50272,56.056 155.50272,56.376 C155.50272,56.472 155.53472,56.504 155.56672,56.536 C155.69472,56.632 155.82272,56.664 155.91872,56.664 C156.23872,56.664 156.39872,56.28 156.39872,55.832 C156.39872,55.448 156.30272,55.064 156.14272,54.776 C155.95072,54.424 155.63072,54.296 155.31072,54.296 C154.22272,54.296 152.65472,55.768 152.39872,56.952 C152.27072,57.272 152.20672,57.624 152.20672,57.912 C152.20672,59.672 153.87072,61.144 154.83072,62.456 C153.74272,63.512 150.51072,66.904 150.51072,68.568 C150.51072,68.728 150.54272,68.856 150.60672,68.984 L150.60672,69.016 C150.70272,69.208 150.86272,69.304 151.05472,69.4 C151.21472,69.464 151.37472,69.464 151.53472,69.464 Z M151.50272,69.048 C151.40672,69.048 151.27872,69.016 151.18272,68.984 C151.08672,68.952 151.02272,68.888 150.95872,68.792 C150.89472,68.664 150.86272,68.536 150.86272,68.408 C150.86272,66.84 154.03072,63.64 155.02272,62.712 C155.31072,63.192 155.43872,63.704 155.43872,64.248 C155.43872,66.616 152.91072,69.048 151.50272,69.048 Z M161.80736,55.512 C161.93536,55.512 162.06336,55.384 162.06336,55.192 C162.06336,55 161.93536,54.872 161.80736,54.872 C161.67936,54.872 161.58336,55 161.58336,55.192 C161.58336,55.384 161.67936,55.512 161.80736,55.512 Z M161.55136,61.688 C163.63136,61.688 167.85536,59.256 168.87936,58.488 C168.94336,58.424 169.00736,58.296 169.00736,58.168 C169.00736,58.136 169.00736,58.072 168.97536,58.04 C168.97536,57.944 168.91136,57.912 168.81536,57.912 C168.75136,57.912 168.65536,57.944 168.59136,58.008 C168.43136,58.104 168.07936,58.584 167.66336,58.84 C166.09536,59.832 163.40736,61.432 161.93536,61.432 C161.45536,61.432 161.10336,61.272 160.94336,60.824 C160.87936,60.632 160.84736,60.408 160.84736,60.184 C160.84736,58.904 161.64736,57.208 161.64736,57.208 L161.64736,57.144 C161.64736,56.984 161.58336,56.76 161.39136,56.664 L161.29536,56.632 L161.29536,56.632 C161.13536,56.632 160.84736,56.76 160.78336,56.856 L160.779836,56.8643952 L160.753535,56.9291421 C160.627292,57.2461701 160.14336,58.5394783 160.14336,59.736 C160.14336,60.216 160.20736,60.664 160.39936,61.048 C160.55936,61.496 160.97536,61.688 161.55136,61.688 Z M167.888,75.64 C169.168,75.64 170.16,73.112 170.608,71.928 C171.408,69.784 171.824,66.584 171.824,64.216 L171.824,63.864 C171.824,63.032 171.728,62.04 171.44,61.304 C172.176,60.376 173.2,59.256 174.32,58.712 C174.544,58.616 174.8,58.648 175.024,58.616 C175.248,58.488 175.344,58.328 175.344,58.2 C175.344,58.104 175.248,58.008 175.088,58.008 C174.992,58.008 174.832,58.04 174.64,58.136 C172.976,59.096 172.56,59.32 171.216,60.92 C170.992,60.568 170.608,60.184 170.16,60.184 L170.032,60.184 C170.928,59.064 171.824,57.72 172.208,56.248 C172.304,55.896 172.368,55.512 172.368,55.16 C172.368,54.36 172.112,53.688 171.44,53.688 L171.312,53.688 C169.808,53.88 168.624,56.76 168.144,58.392 L168.144,58.456 C168.144,58.808 168.368,59.096 168.624,59.16 L168.688,59.16 C168.944,59.16 169.168,58.904 169.2,58.552 C169.232,57.272 169.84,55.896 170.576,55.064 C170.96,54.616 171.248,54.424 171.44,54.424 C171.728,54.424 171.856,54.744 171.856,55.224 C171.856,55.736 171.696,56.44 171.44,57.112 C170.992,58.2 170.288,59.256 169.616,60.152 C169.616,60.152 169.264,60.504 169.264,60.696 C169.264,60.792 169.296,60.824 169.392,60.856 C169.488,60.856 169.744,60.6 170.064,60.6 L170.128,60.6 C170.448,60.6 170.768,60.792 171.056,61.112 C169.648,62.872 166.416,69.528 166.416,73.208 C166.416,74.36 166.736,75.192 167.472,75.544 C167.632,75.608 167.76,75.64 167.888,75.64 Z M167.92,75.512 C167.728,75.512 167.568,75.448 167.376,75.32 C166.864,74.936 166.672,74.232 166.672,73.336 C166.672,69.752 169.904,63.064 171.28,61.496 C171.44,61.88 171.568,62.456 171.632,63.256 C171.664,63.64 171.696,64.088 171.696,64.536 C171.696,66.648 171.344,69.208 170.864,70.968 C170.512,72.248 169.232,75.512 167.92,75.512 Z M177.20064,62.232 C179.56864,62.232 182.35264,60.088 183.88864,58.52 C183.92064,58.488 183.92064,58.456 183.92064,58.424 C183.92064,58.296 183.79264,58.104 183.63264,58.104 C183.56864,58.104 183.53664,58.136 183.47264,58.168 C183.34464,58.264 183.31264,58.552 183.21664,58.68 C181.74464,60.216 179.34464,62.008 177.13664,62.008 C177.00864,62.008 176.84864,61.976 176.72064,61.976 C175.88864,61.88 175.15264,61.048 175.15264,59.96 C175.15264,59.832 175.18464,59.736 175.18464,59.608 C175.18464,59.512 175.31264,59.448 175.44064,59.416 C175.85664,59.256 178.09664,58.36 178.76864,57.368 C178.96064,57.112 179.02464,56.856 179.02464,56.632 C179.02464,56.184 178.70464,55.832 178.09664,55.832 L177.93664,55.832 C177.36064,55.832 176.40064,56.28 175.72864,56.984 C174.96064,57.752 174.70464,58.712 174.67264,59.576 L174.67264,59.736 C174.67264,60.952 175.37664,61.976 176.62464,62.168 C176.81664,62.2 177.00864,62.232 177.20064,62.232 Z M175.79264,58.552 C176.04864,57.688 177.61664,56.728 178.06464,56.728 C178.12864,56.728 178.16064,56.728 178.16064,56.792 C178.16064,56.856 178.12864,56.952 178.06464,57.048 C177.39264,57.752 176.52864,58.264 175.79264,58.552 Z" id="Artworksize" stroke="#1D1D1B" stroke-width="0.5"></path>
                <path d="M20.3976,61.12 C31.2776,61.12 40.7176,49.2 40.7176,33.52 C40.7176,17.76 31.9176,6.08 20.6376,6.08 C9.7576,6.08 0.3176,18.08 0.3176,33.84 C0.3176,49.6 9.1176,61.12 20.3976,61.12 Z M20.6376,60.4 C11.9976,60.4 7.0376,53.28 7.0376,33.68 C7.0376,13.92 11.8376,6.8 20.3976,6.8 C29.0376,6.8 33.9976,14.08 33.9976,33.68 C33.9976,53.44 29.1976,60.4 20.6376,60.4 Z M81.6792,60 L82.0792,45.36 L81.6792,45.28 C80.4792,54 78.8792,55.28 71.1992,55.28 L50.1592,55.28 L50.1592,55.12 L61.1192,45.52 C75.0392,33.44 80.7992,27.68 80.7992,20.08 C80.7992,12.48 74.6392,6.08 63.9192,6.08 C54.7992,6.08 48.1592,12.32 48.1592,17.92 C48.1592,20.8 49.9192,22.88 52.4792,22.88 C55.1192,22.88 56.4792,20.72 56.4792,18.48 C56.4792,16.48 55.5192,14.64 53.0392,13.68 C53.7592,10.48 57.4392,6.8 63.5992,6.8 C70.1592,6.8 74.5592,11.04 74.5592,20 C74.5592,29.12 71.9192,34.48 60.4792,44.64 L47.8392,56 L47.8392,60 L81.6792,60 Z M85.6008,77.2 L102.3208,38.96 L119.3608,0.32 L118.0808,0.32 L101.3608,38.64 L84.3208,77.2 L85.6008,77.2 Z" id="02/"></path>
            </g>
        </g>
    </g>
</svg>