<?xml version="1.0" encoding="UTF-8"?>
<svg width="208px" height="78px" viewBox="0 0 208 78" version="1.1" xmlns="http://www.w3.org/2000/svg" xmlns:xlink="http://www.w3.org/1999/xlink">
    <title>03 Canvas Size</title>
    <g id="----→-Iterations" stroke="none" stroke-width="1" fill="none" fill-rule="evenodd">
        <g id="Artboard" transform="translate(-589.000000, -182.000000)" fill="#000000" fill-rule="nonzero">
            <g id="03-Canvas-Size" transform="translate(589.000000, 182.000000)">
                <path d="M136.1904,37.136 C136.5744,37.136 136.9904,37.104 137.4064,37.04 C143.8384,36.208 151.8384,28.624 154.6544,25.36 C154.6864,25.296 154.7184,25.232 154.7184,25.168 C154.7184,25.008 154.5584,24.944 154.3984,24.944 C154.2704,24.944 154.1424,24.976 154.0464,25.072 C153.8544,25.264 153.8224,25.424 153.6304,25.648 C153.5344,25.776 152.9264,26.544 152.7984,26.64 C150.0464,29.744 143.0064,36.304 137.3424,36.784 C137.0864,36.816 136.8304,36.816 136.6064,36.816 C131.8064,36.816 130.1104,32.432 130.1104,28.144 C130.1104,26.48 130.3664,24.848 130.7824,23.472 C132.1264,19.12 134.9104,14.928 137.5664,12.4 C139.2944,10.768 142.9424,8.048 145.8224,8.048 C146.1424,8.048 146.4624,8.08 146.7504,8.144 C147.1024,8.24 147.4224,8.4 147.6784,8.624 C148.0304,8.976 148.1904,9.52 148.1904,10.16 C148.1904,12.496 146.2064,16.336 144.3824,19.12 C143.3584,20.656 141.5664,21.168 141.5024,22.096 L141.5024,22.128 C141.5024,22.672 141.8224,22.896 142.1424,22.896 C142.3984,22.896 142.6864,22.768 142.8464,22.544 C142.8784,22.512 148.6064,14.448 148.6064,10.192 C148.6064,9.424 148.4144,8.784 147.9664,8.336 C147.6784,8.048 147.2944,7.856 146.8464,7.76 C146.5264,7.664 146.1744,7.632 145.8224,7.632 C142.8144,7.632 138.8144,10.416 137.0224,12.144 C134.3344,14.672 131.5824,18.864 130.2064,23.216 C129.7584,24.688 129.4704,26.416 129.4704,28.176 C129.4704,32.624 131.2624,37.136 136.1904,37.136 Z M165.79104,29.392 C166.01504,29.392 166.23904,29.264 166.36704,29.04 C166.36704,29.04 166.43104,28.752 166.55904,28.56 C167.10304,27.632 168.54304,25.008 169.47104,25.008 C169.63104,25.008 169.79104,25.104 169.91904,25.296 L170.04704,25.488 C171.42304,27.6 172.79904,28.496 174.30304,28.496 C176.03104,28.496 177.95104,27.28 180.15904,25.328 C180.19104,25.296 180.19104,25.264 180.19104,25.232 C180.19104,25.072 179.99904,24.88 179.87104,24.88 C179.83904,24.88 179.80704,24.88 179.77504,24.912 C179.48704,25.168 179.26304,25.616 178.94304,25.84 C176.99104,27.344 175.48704,28.304 174.17504,28.304 L173.88704,28.272 L173.88704,28.272 C172.70304,28.144 171.67904,27.12 170.52704,25.136 L170.39904,24.944 C170.17504,24.624 169.91904,24.496 169.59904,24.496 C168.79904,24.496 167.71104,25.488 166.97504,27.056 C167.51904,25.488 168.15904,23.696 168.22304,22.544 C168.25504,22.448 168.25504,22.384 168.25504,22.288 C168.25504,21.904 168.06304,21.52 167.64704,21.52 C167.58304,21.52 167.51904,21.52 167.45504,21.552 C166.01504,22.128 161.85504,27.824 159.67904,27.824 C159.39104,27.824 159.13504,27.728 158.94304,27.504 C158.87904,27.408 158.78304,27.28 158.75104,27.152 C158.65504,26.768 158.62304,26.352 158.62304,25.904 C158.62304,25.136 158.71904,24.368 158.71904,23.824 C158.71904,23.248 158.52704,23.024 158.20704,23.024 C157.95104,23.024 157.56704,23.312 157.15104,23.792 C156.92704,23.536 156.70304,23.344 156.41504,23.248 C156.28704,23.216 156.15904,23.184 156.03104,23.184 C154.30304,23.184 152.70304,26.864 152.67104,28.144 C152.67104,28.4 152.67104,28.592 152.73504,28.72 C152.79904,28.944 152.99104,29.136 153.18304,29.136 L153.21504,29.136 C153.40704,29.136 153.63104,29.008 153.79104,28.848 C153.91904,28.72 154.23904,28.272 154.65504,27.696 C155.32704,26.736 155.99904,25.776 157.08704,24.528 C157.15104,24.624 157.15104,24.752 157.15104,24.912 L157.15104,25.392 C157.15104,25.648 157.18304,25.84 157.34304,25.84 L157.43904,25.84 C157.56704,25.84 157.63104,25.776 157.72704,25.68 C157.82304,25.552 157.88704,25.52 157.88704,25.456 L157.88704,25.392 C157.82304,24.976 157.66304,24.528 157.40704,24.112 C157.75904,23.76 158.04704,23.472 158.20704,23.472 C158.23904,23.472 158.27104,23.568 158.27104,23.824 C158.27104,24.24 158.23904,24.88 158.23904,25.488 C158.23904,25.808 158.23904,26.096 158.27104,26.384 C158.27104,26.576 158.30304,26.768 158.33504,26.96 C158.36704,27.12 158.43104,27.248 158.49504,27.376 C158.55904,27.504 158.65504,27.6 158.71904,27.696 C158.94304,27.952 159.23104,28.048 159.55104,28.048 C161.98304,28.048 166.49504,21.904 167.35904,21.904 L167.39104,21.904 C167.42304,21.904 167.45504,21.968 167.45504,22.064 C167.45504,23.056 165.37504,28.016 165.18304,28.528 C165.15104,28.624 165.15104,28.688 165.15104,28.784 C165.15104,29.136 165.47104,29.392 165.79104,29.392 Z M153.53504,28.368 L153.53504,28.336 C153.53504,27.92 154.91104,23.888 156.25504,23.888 C156.44704,23.888 156.63904,23.984 156.83104,24.176 C155.96704,25.04 155.00704,26.448 154.30304,27.408 C153.88704,27.984 153.75904,28.176 153.63104,28.272 C153.56704,28.368 153.53504,28.368 153.53504,28.368 Z M180.41568,30.224 C181.11968,30.224 183.39168,26.224 183.77568,25.52 C184.15968,25.648 184.57568,25.712 185.02368,25.712 C185.72768,25.712 186.43168,25.584 187.07168,25.392 C187.13568,25.36 187.19968,25.264 187.19968,25.2 C187.19968,25.104 187.13568,25.04 187.00768,25.04 C186.84768,25.072 186.62368,25.296 186.46368,25.328 C186.01568,25.456 185.53568,25.52 185.08768,25.52 C184.67168,25.52 184.25568,25.456 183.87168,25.328 C185.27968,22.672 185.79168,21.008 185.79168,20.048 C185.79168,19.312 185.47168,18.992 185.02368,18.992 C184.89568,18.992 184.79968,19.024 184.67168,19.056 C183.45568,19.408 181.72768,21.232 181.72768,22.992 C181.72768,23.888 182.20768,24.784 183.45568,25.392 C183.00768,26.192 181.15168,29.392 180.57568,29.616 C180.41568,29.552 180.28768,27.728 180.28768,26.32 C180.28768,25.68 180.31968,25.136 180.38368,24.848 C180.60768,23.952 180.54368,23.984 180.60768,23.568 C180.60768,23.056 180.38368,22.832 180.15968,22.832 C179.96768,22.832 179.77568,22.96 179.67968,23.216 C179.67968,23.248 179.61568,25.2 179.61568,25.456 C179.58368,25.648 179.58368,26.096 179.58368,26.64 C179.58368,28.048 179.71168,30.128 180.38368,30.224 L180.41568,30.224 Z M183.55168,25.2 C182.33568,24.688 181.88768,23.856 181.88768,22.992 C181.88768,21.36 183.55168,19.536 184.67168,19.184 C184.76768,19.152 184.86368,19.12 184.95968,19.12 C185.31168,19.12 185.53568,19.376 185.53568,19.952 C185.53568,20.848 184.99168,22.48 183.55168,25.2 Z M186.17632,29.328 C186.36832,29.328 186.59232,29.2 186.75232,29.04 C186.88032,28.912 187.20032,28.464 187.61632,27.888 C188.28832,26.928 188.96032,25.968 190.04832,24.72 C190.11232,24.816 190.11232,24.944 190.11232,25.104 L190.11232,25.584 C190.11232,25.84 190.14432,26.032 190.30432,26.032 L190.40032,26.032 C190.52832,26.032 190.59232,25.968 190.68832,25.872 C190.78432,25.744 190.84832,25.712 190.84832,25.648 L190.84832,25.584 C190.78432,25.168 190.62432,24.72 190.36832,24.304 C190.72032,23.952 191.00832,23.696 191.16832,23.696 C191.20032,23.696 191.23232,23.792 191.23232,24.016 C191.23232,24.56 191.16832,25.232 191.16832,25.904 C191.16832,27.12 191.36032,28.304 192.44832,28.624 C192.64032,28.688 192.83232,28.688 193.02432,28.688 C194.65632,28.688 197.12032,27.248 199.20032,25.52 C199.26432,25.488 199.29632,25.36 199.29632,25.264 C199.29632,25.2 199.26432,25.104 199.23232,25.072 C199.20032,25.04 199.13632,25.008 199.07232,25.008 C198.97632,25.008 198.84832,25.04 198.68832,25.2 C198.46432,25.36 198.40032,25.616 198.17632,25.776 C196.25632,27.28 194.36832,28.496 193.02432,28.496 C192.80032,28.496 192.60832,28.464 192.41632,28.4 C191.68032,28.112 191.48832,27.344 191.48832,26.448 C191.48832,25.584 191.68032,24.624 191.68032,24.016 C191.68032,23.472 191.48832,23.248 191.16832,23.248 C190.91232,23.248 190.52832,23.536 190.11232,23.984 C189.88832,23.76 189.66432,23.568 189.37632,23.472 C189.24832,23.44 189.12032,23.408 188.99232,23.408 C187.26432,23.408 185.66432,27.056 185.63232,28.336 C185.63232,28.592 185.63232,28.784 185.69632,28.912 C185.76032,29.136 185.95232,29.328 186.14432,29.328 L186.17632,29.328 Z M186.49632,28.56 L186.49632,28.528 C186.49632,28.112 187.87232,24.112 189.21632,24.112 C189.40832,24.112 189.60032,24.176 189.79232,24.368 C188.92832,25.232 187.96832,26.64 187.26432,27.6 C186.84832,28.176 186.72032,28.368 186.59232,28.464 C186.52832,28.56 186.49632,28.56 186.49632,28.56 Z M197.95296,36.464 C199.71296,36.464 202.52896,33.776 202.52896,31.152 C202.52896,30.512 202.36896,29.904 202.01696,29.328 C203.42496,28.048 204.80096,26.896 206.62496,25.808 C206.68896,25.776 206.91296,25.776 206.94496,25.744 C207.16896,25.712 207.32896,25.488 207.39296,25.264 C207.36096,25.2 207.26496,25.136 207.20096,25.136 C207.16896,25.136 207.13696,25.136 207.10496,25.168 C206.94496,25.264 206.78496,25.328 206.65696,25.424 C204.73696,26.672 203.29696,27.76 201.82496,29.104 C200.92896,27.888 199.26496,26.064 199.26496,24.528 C199.26496,24.336 199.29696,24.176 199.36096,23.984 C199.52096,23.216 200.70496,21.584 201.56896,21.584 C201.82496,21.584 202.04896,21.712 202.20896,22 L202.24096,22.096 L202.24096,22.096 C202.24096,22.384 201.92096,23.056 201.92096,23.376 C201.92096,23.472 201.95296,23.504 201.98496,23.536 C202.11296,23.632 202.24096,23.664 202.33696,23.664 C202.65696,23.664 202.81696,23.28 202.81696,22.832 C202.81696,22.448 202.72096,22.064 202.56096,21.776 C202.36896,21.424 202.04896,21.296 201.72896,21.296 C200.64096,21.296 199.07296,22.768 198.81696,23.952 C198.68896,24.272 198.62496,24.624 198.62496,24.912 C198.62496,26.672 200.28896,28.144 201.24896,29.456 C200.16096,30.512 196.92896,33.904 196.92896,35.568 C196.92896,35.728 196.96096,35.856 197.02496,35.984 L197.02496,36.016 C197.12096,36.208 197.28096,36.304 197.47296,36.4 C197.63296,36.464 197.79296,36.464 197.95296,36.464 Z M197.92096,36.048 C197.82496,36.048 197.69696,36.016 197.60096,35.984 C197.50496,35.952 197.44096,35.888 197.37696,35.792 C197.31296,35.664 197.28096,35.536 197.28096,35.408 C197.28096,33.84 200.44896,30.64 201.44096,29.712 C201.72896,30.192 201.85696,30.704 201.85696,31.248 C201.85696,33.616 199.32896,36.048 197.92096,36.048 Z M140.92608,63.616 C141.08608,63.616 141.24608,63.616 141.43808,63.584 C143.96608,63.232 147.23008,60.48 148.19008,59.296 C148.22208,59.264 148.22208,59.2 148.22208,59.168 C148.22208,59.008 148.12608,58.912 147.99808,58.912 C147.93408,58.912 147.83808,58.944 147.77408,59.008 C146.97408,59.744 143.51808,62.912 141.47008,63.296 C141.27808,63.328 141.11808,63.36 140.95808,63.36 C139.96608,63.36 139.61408,62.72 139.61408,61.824 C139.61408,60.032 141.11808,57.216 142.04608,56.736 C142.17408,56.704 142.23808,56.672 142.30208,56.672 C142.52608,56.736 142.59008,56.928 142.59008,57.152 C142.59008,57.696 142.23808,58.464 142.23808,58.784 C142.23808,58.848 142.23808,58.88 142.27008,58.912 C142.30208,59.232 142.49408,59.392 142.68608,59.392 C142.91008,59.392 143.13408,59.232 143.19808,58.976 C143.19808,58.976 143.26208,58.528 143.26208,57.952 C143.26208,57.184 143.13408,56.224 142.39808,56.128 L142.30208,56.128 C142.14208,56.128 141.98208,56.192 141.82208,56.256 C140.19008,57.056 138.94208,59.52 138.94208,61.376 C138.94208,62.624 139.51808,63.616 140.92608,63.616 Z M148.38272,63.904 C148.57472,63.904 148.76672,63.84 148.79872,63.712 L148.806076,63.6876383 C148.877971,63.4541353 149.488268,61.5710968 151.13472,59.296 C151.77472,58.368 152.28672,57.984 152.73472,57.984 C152.92672,57.984 153.11872,58.048 153.27872,58.176 C155.10272,59.488 155.03872,62.144 158.36672,62.592 C158.55872,62.624 158.71872,62.624 158.91072,62.624 C160.51072,62.624 162.52672,61.76 165.05472,59.456 C165.08672,59.424 165.08672,59.392 165.08672,59.36 C165.08672,59.264 165.02272,59.2 164.89472,59.2 C164.86272,59.2 164.79872,59.2 164.73472,59.264 C164.67072,59.328 164.51072,59.552 164.44672,59.648 C162.07872,61.696 160.28672,62.4 158.84672,62.4 C158.65472,62.4 158.46272,62.4 158.30272,62.368 C155.67872,62.016 155.29472,58.784 153.82272,57.728 C153.59872,57.568 153.34272,57.472 153.08672,57.472 C152.41472,57.472 151.64672,57.984 150.91072,59.04 C149.66272,60.8 148.89472,62.304 148.57472,63.04 C148.47872,62.336 148.44672,61.696 148.44672,60.992 C148.44672,60.416 148.47872,59.808 148.54272,59.04 C149.11872,58.528 154.87872,52.832 157.34272,47.296 C157.66272,46.56 158.07872,45.312 158.07872,44.224 C158.07872,43.296 157.79072,42.432 156.92672,42.048 C156.57472,41.888 156.25472,41.824 155.93472,41.824 C151.96672,41.824 148.99072,51.936 148.44672,54.56 C147.93472,56.96 147.71072,59.072 147.71072,60.896 C147.71072,61.92 147.77472,62.88 147.90272,63.712 C147.96672,63.84 148.15872,63.904 148.38272,63.904 Z M148.63872,58.048 C148.76672,56.928 148.92672,55.712 149.18272,54.528 C149.66272,52.192 152.28672,41.92 155.99872,41.92 C156.28672,41.92 156.57472,41.984 156.89472,42.112 C157.63072,42.432 157.88672,43.104 157.88672,43.936 C157.88672,44.96 157.47072,46.208 157.05472,47.168 C154.84672,52.192 149.88672,56.928 148.63872,58.048 Z M164.60736,63.392 C165.15136,63.392 165.56736,62.592 165.79136,62.208 C166.04736,61.76 166.27136,61.184 166.43136,60.576 C166.52736,60.256 166.59136,59.936 166.62336,59.616 C167.35936,59.648 168.06336,59.68 168.73536,59.68 C170.04736,59.68 171.16736,59.584 171.77536,59.232 C171.83936,59.168 171.87136,59.072 171.87136,59.008 C171.87136,58.912 171.80736,58.848 171.67936,58.848 C171.61536,58.848 171.58336,58.848 171.51936,58.88 C170.84736,59.264 169.43936,59.392 167.87136,59.392 C167.48736,59.392 167.07136,59.36 166.65536,59.36 L166.68736,58.88 L166.68736,58.88 C166.68736,58.592 166.65536,58.304 166.55936,58.016 L166.49536,57.856 C166.36736,57.568 166.07936,57.184 165.79136,57.024 C165.53536,56.896 165.24736,56.832 164.95936,56.832 C164.60736,56.832 164.25536,56.928 164.03136,57.152 L163.99936,57.152 L163.87136,57.28 C163.74336,57.472 163.64736,57.632 163.61536,57.824 L163.61536,58.016 C163.61536,58.528 163.93536,58.88 164.47936,59.136 C164.09536,59.936 163.74336,61.024 163.74336,61.952 C163.74336,62.432 163.83936,62.848 164.06336,63.168 C164.25536,63.328 164.41536,63.392 164.60736,63.392 Z M164.57536,58.976 C164.15936,58.752 163.90336,58.464 163.90336,58.08 L163.93536,57.888 L163.93536,57.888 C163.96736,57.696 164.09536,57.472 164.41536,57.312 C164.60736,57.248 164.79936,57.184 164.99136,57.184 C165.21536,57.184 165.43936,57.248 165.59936,57.344 C165.82336,57.44 166.04736,57.696 166.14336,57.92 C166.04736,57.792 165.91936,57.728 165.79136,57.728 C165.43936,57.728 165.05536,58.176 164.92736,58.4 L164.79936,58.592 L164.83136,58.592 L164.73536,58.688 L164.57536,58.976 Z M166.30336,59.36 C165.98336,59.328 165.66336,59.296 165.40736,59.232 C165.66336,58.688 165.95136,58.272 166.23936,58.176 C166.30336,58.368 166.33536,58.624 166.33536,58.88 L166.30336,59.36 L166.30336,59.36 Z M164.70336,62.944 C164.60736,62.944 164.54336,62.784 164.54336,62.528 C164.54336,61.824 164.86336,60.448 165.31136,59.424 C165.59936,59.488 165.95136,59.552 166.27136,59.584 C166.23936,59.872 166.17536,60.192 166.07936,60.512 C165.95136,61.056 165.72736,61.6 165.47136,62.016 C165.08736,62.688 164.86336,62.944 164.70336,62.944 Z M172.8,56.512 C172.928,56.512 173.056,56.384 173.056,56.192 C173.056,56 172.928,55.872 172.8,55.872 C172.672,55.872 172.576,56 172.576,56.192 C172.576,56.384 172.672,56.512 172.8,56.512 Z M172.544,62.688 C174.624,62.688 178.848,60.256 179.872,59.488 C179.936,59.424 180,59.296 180,59.168 C180,59.136 180,59.072 179.968,59.04 C179.968,58.944 179.904,58.912 179.808,58.912 C179.744,58.912 179.648,58.944 179.584,59.008 C179.424,59.104 179.072,59.584 178.656,59.84 C177.088,60.832 174.4,62.432 172.928,62.432 C172.448,62.432 172.096,62.272 171.936,61.824 C171.872,61.632 171.84,61.408 171.84,61.184 C171.84,59.904 172.64,58.208 172.64,58.208 L172.64,58.144 C172.64,57.984 172.576,57.76 172.384,57.664 L172.288,57.632 L172.288,57.632 C172.128,57.632 171.84,57.76 171.776,57.856 L171.772476,57.8643952 L171.746175,57.9291421 C171.619932,58.2461701 171.136,59.5394783 171.136,60.736 C171.136,61.216 171.2,61.664 171.392,62.048 C171.552,62.496 171.968,62.688 172.544,62.688 Z M180.86464,63.616 C181.02464,63.616 181.18464,63.616 181.37664,63.584 C183.90464,63.232 187.16864,60.48 188.12864,59.296 C188.16064,59.264 188.16064,59.2 188.16064,59.168 C188.16064,59.008 188.06464,58.912 187.93664,58.912 C187.87264,58.912 187.77664,58.944 187.71264,59.008 C186.91264,59.744 183.45664,62.912 181.40864,63.296 C181.21664,63.328 181.05664,63.36 180.89664,63.36 C179.90464,63.36 179.55264,62.72 179.55264,61.824 C179.55264,60.032 181.05664,57.216 181.98464,56.736 C182.11264,56.704 182.17664,56.672 182.24064,56.672 C182.46464,56.736 182.52864,56.928 182.52864,57.152 C182.52864,57.696 182.17664,58.464 182.17664,58.784 C182.17664,58.848 182.17664,58.88 182.20864,58.912 C182.24064,59.232 182.43264,59.392 182.62464,59.392 C182.84864,59.392 183.07264,59.232 183.13664,58.976 C183.13664,58.976 183.20064,58.528 183.20064,57.952 C183.20064,57.184 183.07264,56.224 182.33664,56.128 L182.24064,56.128 C182.08064,56.128 181.92064,56.192 181.76064,56.256 C180.12864,57.056 178.88064,59.52 178.88064,61.376 C178.88064,62.624 179.45664,63.616 180.86464,63.616 Z M189.95328,63.232 C192.32128,63.232 195.10528,61.088 196.64128,59.52 C196.67328,59.488 196.67328,59.456 196.67328,59.424 C196.67328,59.296 196.54528,59.104 196.38528,59.104 C196.32128,59.104 196.28928,59.136 196.22528,59.168 C196.09728,59.264 196.06528,59.552 195.96928,59.68 C194.49728,61.216 192.09728,63.008 189.88928,63.008 C189.76128,63.008 189.60128,62.976 189.47328,62.976 C188.64128,62.88 187.90528,62.048 187.90528,60.96 C187.90528,60.832 187.93728,60.736 187.93728,60.608 C187.93728,60.512 188.06528,60.448 188.19328,60.416 C188.60928,60.256 190.84928,59.36 191.52128,58.368 C191.71328,58.112 191.77728,57.856 191.77728,57.632 C191.77728,57.184 191.45728,56.832 190.84928,56.832 L190.68928,56.832 C190.11328,56.832 189.15328,57.28 188.48128,57.984 C187.71328,58.752 187.45728,59.712 187.42528,60.576 L187.42528,60.736 C187.42528,61.952 188.12928,62.976 189.37728,63.168 C189.56928,63.2 189.76128,63.232 189.95328,63.232 Z M188.54528,59.552 C188.80128,58.688 190.36928,57.728 190.81728,57.728 C190.88128,57.728 190.91328,57.728 190.91328,57.792 C190.91328,57.856 190.88128,57.952 190.81728,58.048 C190.14528,58.752 189.28128,59.264 188.54528,59.552 Z" id="Canvaschoice" stroke="#1D1D1B" stroke-width="0.5"></path>
                <path d="M20.7976,61.12 C31.6776,61.12 41.1176,49.2 41.1176,33.52 C41.1176,17.76 32.3176,6.08 21.0376,6.08 C10.1576,6.08 0.7176,18.08 0.7176,33.84 C0.7176,49.6 9.5176,61.12 20.7976,61.12 Z M21.0376,60.4 C12.3976,60.4 7.4376,53.28 7.4376,33.68 C7.4376,13.92 12.2376,6.8 20.7976,6.8 C29.4376,6.8 34.3976,14.08 34.3976,33.68 C34.3976,53.44 29.5976,60.4 21.0376,60.4 Z M64.6392,61.12 C76.7992,61.12 83.5192,55.12 83.5192,46.16 C83.5192,38.24 76.8792,33.92 65.9992,32.96 L65.9992,32.72 C77.3592,30.24 82.1592,24.64 82.1592,18.64 C82.1592,11.44 76.7992,6.08 65.4392,6.08 C55.8392,6.08 49.7592,11.52 49.7592,16.24 C49.7592,18.88 51.3592,20.8 53.8392,20.8 C56.3992,20.8 57.5992,18.72 57.5992,16.64 C57.5992,14.56 56.0792,12.96 53.9992,12.4 C55.6792,9.12 60.3992,6.8 64.8792,6.8 C71.8392,6.8 75.9992,10.8 75.9992,18.96 C75.9992,28.16 71.3592,32.48 60.7992,32.48 L59.8392,32.48 L59.8392,33.28 L61.9992,33.28 C71.5192,33.28 77.3592,37.36 77.3592,46.72 C77.3592,55.6 73.8392,60.4 64.4792,60.4 C58.2392,60.4 54.1592,57.44 52.7992,54.96 C54.7992,53.92 56.1592,52.32 56.1592,50.16 C56.1592,48.16 54.9592,46.16 52.3992,46.16 C49.7592,46.16 48.1592,48.24 48.1592,51.04 C48.1592,55.76 54.2392,61.12 64.6392,61.12 Z M85.2008,77.2 L101.9208,38.96 L118.9608,0.32 L117.6808,0.32 L100.9608,38.64 L83.9208,77.2 L85.2008,77.2 Z" id="03/"></path>
            </g>
        </g>
    </g>
</svg>