<?xml version="1.0" encoding="UTF-8"?>
<svg width="221px" height="78px" viewBox="0 0 221 78" version="1.1" xmlns="http://www.w3.org/2000/svg" xmlns:xlink="http://www.w3.org/1999/xlink">
    <title>04 Type of material </title>
    <g id="----→-Iterations" stroke="none" stroke-width="1" fill="none" fill-rule="evenodd">
        <g id="Artboard" transform="translate(-861.000000, -182.000000)" fill="#000000" fill-rule="nonzero">
            <g id="04-Type-of-material-" transform="translate(861.000000, 182.000000)">
                <path d="M149.31776,38.376 C149.54176,38.376 149.76576,38.28 149.79776,38.216 C150.08576,37.768 150.21376,37.384 150.21376,37.064 C150.21376,36.488 149.86176,36.168 149.86176,36.136 C150.27776,29.8 152.00576,21.672 153.28576,15.72 C153.57376,14.76 153.70176,13.896 153.86176,13.128 C155.36576,13.096 156.93376,13.064 158.53376,13.064 C161.76576,13.064 165.09376,13.16 168.06976,13.416 C168.03776,13.448 168.03776,13.48 168.03776,13.48 C168.03776,13.576 168.16576,13.64 168.22976,13.704 C168.35776,13.736 168.77376,13.768 169.22176,13.768 C169.60576,13.768 170.05376,13.736 170.37376,13.672 C170.46976,13.672 170.50176,13.608 170.50176,13.544 C170.50176,13.48 170.40576,13.416 170.30976,13.384 C169.92576,13.256 169.12576,13.256 168.61376,13.224 C164.86976,12.872 160.16576,12.648 156.10176,12.648 C155.36576,12.648 154.66176,12.68 153.95776,12.68 C154.14976,11.656 154.21376,10.824 154.21376,10.12 C154.21376,8.36 153.70176,7.464 152.80576,7.208 C152.64576,7.176 152.48576,7.144 152.29376,7.144 C149.92576,7.144 145.60576,10.536 141.73376,13.8 C134.88576,15.176 132.22976,18.12 132.22976,19.528 C132.22976,20.008 132.51776,20.328 133.09376,20.328 C133.57376,20.328 134.24576,20.104 135.07776,19.56 C137.31776,18.088 139.52576,15.976 141.63776,14.216 C145.18976,13.512 149.12576,13.224 153.09376,13.16 C153.06176,13.192 153.06176,13.256 153.06176,13.32 L153.02976,13.384 L152.981256,13.7193545 C152.703736,15.5947693 152.01671,19.6407226 151.275808,23.9003183 L151.13183,24.7268984 C150.048385,30.938375 148.89976,37.334 148.77376,37.928 C148.83776,38.248 149.06176,38.376 149.31776,38.376 Z M142.21376,13.704 L142.509572,13.4566742 L142.509572,13.4566742 L143.101993,12.9645068 C146.558558,10.1069474 150.001549,7.528 152.00576,7.528 C152.19776,7.528 152.32576,7.56 152.48576,7.592 C153.18976,7.784 153.50976,8.424 153.50976,9.672 C153.50976,10.44 153.41376,11.4 153.15776,12.68 C149.34976,12.776 145.73376,13.064 142.21376,13.704 Z M133.12576,20.072 C132.70976,20.072 132.48576,19.848 132.48576,19.464 C132.48576,18.28 134.94976,15.592 141.12576,14.312 C139.17376,15.976 137.06176,17.96 134.94976,19.336 C134.18176,19.848 133.57376,20.072 133.12576,20.072 Z M158.8864,42.664 C159.0784,42.664 159.2704,42.632 159.4624,42.6 C160.9664,42.248 162.4704,40.232 163.7184,37.544 C165.3824,33.992 166.7264,30.024 167.0784,26.088 C168.5504,25.352 169.7344,24.968 171.5264,24.552 L172.2624,24.552 C172.4864,24.52 172.9024,24.456 172.9344,24.232 C172.9024,24.072 172.7424,24.04 172.5824,24.04 L172.4864,24.04 C170.2784,24.488 168.8064,24.904 167.1104,25.736 C167.1424,25.128 167.1744,24.616 167.1744,24.136 C167.1744,22.184 166.8224,21.416 166.2464,21.416 C164.4864,21.416 160.5824,28.744 158.3744,28.744 C158.2464,28.744 158.1184,28.712 157.9904,28.648 C157.4784,28.392 157.3184,27.784 157.3184,27.08 C157.3184,25.896 157.7664,24.456 158.0544,23.848 C158.4064,23.112 158.8864,23.048 158.9504,22.184 C158.9824,22.088 159.0144,21.992 159.0144,21.928 C159.0144,21.608 158.7584,21.384 158.5664,21.384 C158.5344,21.384 158.5024,21.352 158.4384,21.352 C158.0864,21.352 157.6384,21.832 157.5424,22.184 C157.4144,22.248 156.5504,24.584 156.5504,26.536 C156.5504,27.656 156.8384,28.616 157.6704,28.968 C157.8304,29.064 158.0224,29.096 158.2144,29.096 C160.8064,29.096 164.5824,21.864 165.9904,21.864 C166.3424,21.864 166.5664,22.312 166.5664,23.496 C166.5664,24.136 166.5024,25 166.3744,26.088 C161.4464,28.648 158.6624,32.84 157.5744,36.2 C157.3504,36.904 157.0304,38.312 157.0304,39.656 C157.0304,41.224 157.4464,42.664 158.8864,42.664 Z M158.8544,42.408 C157.6384,42.408 157.2864,41.16 157.2864,39.784 C157.2864,38.408 157.6064,36.904 157.8304,36.264 C158.8864,33.032 161.5424,28.968 166.3744,26.44 C165.9904,29.928 164.8064,34.216 163.3344,37.352 C162.1184,39.912 160.7424,42.056 159.3664,42.344 C159.1744,42.376 159.0144,42.408 158.8544,42.408 Z M171.78304,37.64 C171.87904,37.64 171.97504,37.544 172.00704,37.448 L172.00704,37.416 C171.91104,37.384 171.87904,37.096 171.87904,36.648 C171.87904,33.768 173.35104,23.88 175.20704,22.152 C175.52704,21.864 175.75104,21.768 175.87904,21.768 C176.07104,21.768 176.16704,21.864 176.26304,22.056 C176.39104,22.312 176.45504,22.696 176.45504,23.144 C176.45504,24.104 176.19904,25.288 175.71904,26.024 C175.59104,26.216 175.49504,26.376 175.36704,26.504 L175.04704,26.696 L175.04704,26.696 C174.69504,26.888 174.56704,26.984 174.37504,27.112 C174.18304,27.272 174.08704,27.432 174.08704,27.56 C174.08704,27.688 174.18304,27.784 174.37504,27.784 C174.43904,27.784 174.53504,27.752 174.63104,27.72 C174.85504,27.656 174.98304,27.56 175.33504,27.24 C175.46304,27.144 175.59104,27.016 175.68704,26.888 C176.90304,25.832 179.75104,24.488 182.02304,24.488 L182.18304,24.488 C182.31104,24.456 182.40704,24.36 182.40704,24.232 C182.40704,24.104 182.31104,24.008 182.18304,24.008 L182.15104,24.008 C180.42304,24.072 177.86304,25.224 176.13504,26.12 C176.83904,24.968 177.12704,23.88 177.12704,23.048 C177.12704,21.992 176.67904,21.32 176.07104,21.32 C175.71904,21.32 175.33504,21.512 174.91904,21.992 C172.96704,24.232 172.00704,33.128 171.62304,36.232 C171.62304,33.512 172.87104,25.672 173.19104,23.336 C173.25504,22.952 173.25504,22.664 173.25504,22.472 C173.25504,22.12 173.22304,21.992 173.12704,21.992 C172.87104,21.992 172.39104,22.888 172.29504,23.176 C172.29504,23.176 172.16704,23.944 172.16704,24.68 C172.16704,24.744 172.32704,25.032 172.32704,25.128 L172.32704,25.16 C172.00704,27.656 171.30304,32.808 171.30304,35.656 C171.30304,36.808 171.43104,37.576 171.71904,37.64 L171.78304,37.64 Z M184.16768,28.232 C186.53568,28.232 189.31968,26.088 190.85568,24.52 C190.88768,24.488 190.88768,24.456 190.88768,24.424 C190.88768,24.296 190.75968,24.104 190.59968,24.104 C190.53568,24.104 190.50368,24.136 190.43968,24.168 C190.31168,24.264 190.27968,24.552 190.18368,24.68 C188.71168,26.216 186.31168,28.008 184.10368,28.008 C183.97568,28.008 183.81568,27.976 183.68768,27.976 C182.85568,27.88 182.11968,27.048 182.11968,25.96 C182.11968,25.832 182.15168,25.736 182.15168,25.608 C182.15168,25.512 182.27968,25.448 182.40768,25.416 C182.82368,25.256 185.06368,24.36 185.73568,23.368 C185.92768,23.112 185.99168,22.856 185.99168,22.632 C185.99168,22.184 185.67168,21.832 185.06368,21.832 L184.90368,21.832 C184.32768,21.832 183.36768,22.28 182.69568,22.984 C181.92768,23.752 181.67168,24.712 181.63968,25.576 L181.63968,25.736 C181.63968,26.952 182.34368,27.976 183.59168,28.168 C183.78368,28.2 183.97568,28.232 184.16768,28.232 Z M182.75968,24.552 C183.01568,23.688 184.58368,22.728 185.03168,22.728 C185.09568,22.728 185.12768,22.728 185.12768,22.792 C185.12768,22.856 185.09568,22.952 185.03168,23.048 C184.35968,23.752 183.49568,24.264 182.75968,24.552 Z M203.40096,28.392 C203.94496,28.392 204.36096,27.592 204.58496,27.208 C204.84096,26.76 205.06496,26.184 205.22496,25.576 C205.32096,25.256 205.38496,24.936 205.41696,24.616 C206.15296,24.648 206.85696,24.68 207.52896,24.68 C208.84096,24.68 209.96096,24.584 210.56896,24.232 C210.63296,24.168 210.66496,24.072 210.66496,24.008 C210.66496,23.912 210.60096,23.848 210.47296,23.848 C210.40896,23.848 210.37696,23.848 210.31296,23.88 C209.64096,24.264 208.23296,24.392 206.66496,24.392 C206.28096,24.392 205.86496,24.36 205.44896,24.36 L205.48096,23.88 L205.48096,23.88 C205.48096,23.592 205.44896,23.304 205.35296,23.016 L205.28896,22.856 C205.16096,22.568 204.87296,22.184 204.58496,22.024 C204.32896,21.896 204.04096,21.832 203.75296,21.832 C203.40096,21.832 203.04896,21.928 202.82496,22.152 L202.79296,22.152 L202.66496,22.28 C202.53696,22.472 202.44096,22.632 202.40896,22.824 L202.40896,23.016 C202.40896,23.528 202.72896,23.88 203.27296,24.136 C202.88896,24.936 202.53696,26.024 202.53696,26.952 C202.53696,27.432 202.63296,27.848 202.85696,28.168 C203.04896,28.328 203.20896,28.392 203.40096,28.392 Z M203.36896,23.976 C202.95296,23.752 202.69696,23.464 202.69696,23.08 L202.72896,22.888 L202.72896,22.888 C202.76096,22.696 202.88896,22.472 203.20896,22.312 C203.40096,22.248 203.59296,22.184 203.78496,22.184 C204.00896,22.184 204.23296,22.248 204.39296,22.344 C204.61696,22.44 204.84096,22.696 204.93696,22.92 C204.84096,22.792 204.71296,22.728 204.58496,22.728 C204.23296,22.728 203.84896,23.176 203.72096,23.4 L203.59296,23.592 L203.62496,23.592 L203.52896,23.688 L203.36896,23.976 Z M205.09696,24.36 C204.77696,24.328 204.45696,24.296 204.20096,24.232 C204.45696,23.688 204.74496,23.272 205.03296,23.176 C205.09696,23.368 205.12896,23.624 205.12896,23.88 L205.09696,24.36 L205.09696,24.36 Z M203.49696,27.944 C203.40096,27.944 203.33696,27.784 203.33696,27.528 C203.33696,26.824 203.65696,25.448 204.10496,24.424 C204.39296,24.488 204.74496,24.552 205.06496,24.584 C205.03296,24.872 204.96896,25.192 204.87296,25.512 C204.74496,26.056 204.52096,26.6 204.26496,27.016 C203.88096,27.688 203.65696,27.944 203.49696,27.944 Z M209.4816,39.816 C210.6656,39.816 211.5616,35.944 211.5616,32.456 C211.5616,30.696 211.3056,29 210.7936,27.976 C211.0816,27.304 215.4976,24.648 218.2496,24.648 C218.4736,24.648 218.6976,24.68 218.9216,24.712 C219.0176,24.712 219.0816,24.68 219.1136,24.328 C219.0816,24.168 218.8576,24.168 218.6976,24.168 L218.6016,24.168 C218.0256,24.2 216.6816,24.488 215.4976,24.968 C213.543661,25.7796364 210.799036,27.4949128 210.473531,27.6998438 L210.4416,27.72 L210.4416,27.72 C210.3776,27.784 210.3456,27.848 210.3456,27.944 C210.3456,27.976 210.3456,28.04 210.3776,28.072 C210.9216,29.128 211.1456,30.888 211.1456,32.712 C211.1456,36.072 210.3776,39.624 209.3856,39.624 L209.3536,39.624 C209.2576,39.592 209.0656,39.496 208.9696,39.24 C208.8416,38.856 208.7776,38.28 208.7776,37.512 C208.7776,35.88 209.0336,33.576 209.3856,31.368 C209.663165,29.8876522 210.120889,27.4464575 210.605435,24.9576714 L210.83636,23.7788083 C211.454288,20.6448544 212.076383,17.6650435 212.3936,16.68 C212.3936,16.68 212.3936,16.648 212.4256,16.648 C212.4576,16.648 212.5216,16.712 212.6496,16.744 L212.6816,16.744 C212.9376,16.744 213.0656,16.424 213.0656,16.392 C213.2256,15.848 213.2896,15.208 213.3216,14.888 L213.3216,14.728 C213.3216,14.472 213.2576,14.184 213.0656,14.088 C213.0336,14.056 212.9696,14.024 212.9056,14.024 C212.7456,14.024 212.5216,14.12 212.3936,14.376 C211.7216,15.144 209.5776,26.472 209.1296,31.272 C208.7776,33.448 208.5216,35.528 208.5216,37.096 C208.5216,37.928 208.6176,38.632 208.7776,39.08 C208.9376,39.56 209.1616,39.816 209.4176,39.816 L209.4816,39.816 Z M130.08576,62.776 C130.34176,62.776 130.66176,62.552 130.98176,61.976 C131.87776,60.44 135.23776,52.344 137.02976,52.344 C137.12576,52.344 137.22176,52.344 137.31776,52.408 C137.50976,52.504 137.66976,52.792 137.66976,53.24 C137.66976,53.368 137.66976,53.496 137.63776,53.624 C137.44576,55.64 136.29376,59.736 136.03776,60.664 C136.00576,60.76 136.00576,60.856 136.00576,60.92 C136.00576,61.176 136.16576,61.304 136.35776,61.304 C136.48576,61.304 136.67776,61.24 136.83776,61.08 L136.86976,61.048 L136.90176,61.048 C136.90176,61.048 138.62976,58.52 139.78176,58.232 C139.84576,58.232 139.87776,58.2 139.90976,58.2 C140.67776,58.2 140.32576,60.056 141.57376,60.76 C141.95776,60.984 142.43776,61.08 142.91776,61.08 C145.02976,61.08 147.87776,59.384 149.18976,58.392 C149.25376,58.328 149.25376,58.264 149.25376,58.2 C149.25376,58.136 149.22176,58.04 149.12576,58.04 C149.09376,58.04 149.02976,58.072 148.96576,58.104 C148.83776,58.2 148.67776,58.456 148.54976,58.52 C147.39776,59.384 145.06176,60.76 143.26976,60.76 C142.82176,60.76 142.37376,60.664 142.02176,60.472 C140.90176,59.8 141.22176,57.656 140.13376,57.656 C140.06976,57.656 140.00576,57.656 139.94176,57.688 C139.04576,57.912 137.66976,59.544 136.96576,60.408 L137.09376,59.864 L137.071241,59.8651852 L137.071241,59.8651852 L137.069,59.868 L137.080723,59.8237037 C137.104427,59.7288889 137.147093,59.544 137.18976,59.288 C137.44576,57.976 138.02176,54.84 138.05376,53.528 L138.05376,53.432 C138.05376,52.728 137.66976,52.248 137.15776,52.12 L136.96576,52.088 L136.96576,52.088 C134.88576,52.088 131.84576,58.904 130.69376,60.952 C130.69376,60.952 131.20576,59.192 131.52576,57.944 C131.55776,57.784 131.58976,57.656 131.58976,57.528 C131.58976,57.016 131.26976,56.76 130.94976,56.76 C130.72576,56.76 130.46976,56.888 130.34176,57.176 C130.21376,57.4 129.95776,58.104 129.89376,58.712 C129.89376,58.776 130.02176,59.096 130.02176,59.224 L130.02176,59.256 C129.89376,60.408 129.54176,61.592 129.54176,62.136 C129.54176,62.2 129.54176,62.264 129.57376,62.328 C129.66976,62.584 129.86176,62.776 130.08576,62.776 Z M162.4064,64.376 C164.1344,64.376 166.7904,61.144 168.1984,59 C168.2944,58.872 168.5504,58.648 168.6144,58.52 C168.6784,58.488 168.7104,58.424 168.7104,58.328 C168.7104,58.2 168.5824,58.072 168.4544,58.072 C168.3584,58.072 168.2304,58.136 168.1344,58.264 C167.9424,58.776 167.6224,59.192 167.0784,60.056 C166.5344,60.92 163.5904,64.056 162.4384,64.152 L162.2784,64.152 C161.5744,64.152 161.2544,63.544 161.2544,62.104 C161.2544,61.528 161.3184,60.824 161.4144,59.928 C161.6704,57.336 162.9824,51.224 163.3984,49.4 C163.8784,49.272 164.2944,49.144 164.5184,49.112 C166.4064,48.696 173.4784,46.52 178.7584,46.52 C182.0864,46.52 184.6784,47.384 184.7744,50.104 C184.7744,50.168 184.8384,50.168 184.9344,50.168 C185.0304,50.168 185.1264,50.168 185.1904,50.136 C185.3184,50.136 185.4144,50.008 185.4144,49.848 C185.3184,47.16 182.5664,46.296 179.0464,46.296 C173.5104,46.296 166.1504,48.408 164.3584,48.824 C164.1984,48.856 163.8784,48.952 163.4944,49.048 L163.5584,48.728 C163.8784,47.928 165.5104,44.504 165.5104,43.416 C165.5104,43.288 165.4784,43.224 165.4464,43.16 C165.3824,43.064 165.2864,43 165.1904,43 C164.7424,43 164.0704,44.024 163.4624,46.424 C163.3024,46.968 163.1744,47.576 163.0144,48.248 L163.0144,48.28 L162.9824,48.44 L162.8864,48.888 L162.8864,48.888 C162.8544,48.984 162.7904,49.112 162.7584,49.24 C160.5824,49.848 156.7744,50.808 154.0864,50.808 C152.3264,50.808 151.0144,50.392 151.0144,49.144 L151.0144,49.08 C151.0144,44.344 158.0544,41.24 163.6544,41.24 C165.5744,41.24 167.3024,41.624 168.5504,42.392 C169.2864,42.84 169.6384,43.288 169.7984,44.056 C169.8944,44.216 170.0544,44.28 170.2144,44.28 C170.4384,44.28 170.6624,44.152 170.6944,43.96 C170.7264,43.896 170.7584,43.832 170.7584,43.8 C170.7584,43.704 170.7264,43.64 170.6624,43.576 C169.9264,42.488 169.2224,42.136 168.3904,41.72 C167.2704,41.176 165.7664,40.92 164.1024,40.92 C158.3744,40.92 150.8544,44.024 150.8544,48.984 L150.8544,49.048 C150.8544,50.616 152.3264,51.128 154.3104,51.128 C156.9344,51.128 160.4224,50.232 162.6304,49.624 C161.1264,53.944 159.7824,56.888 158.4384,58.776 C156.9664,60.824 155.7184,61.528 154.9184,61.528 C154.8224,61.528 154.6944,61.528 154.5984,61.496 C153.8944,61.272 153.6384,60.44 153.6064,59.64 L153.6064,59.416 C153.6064,58.584 153.7984,57.784 153.7984,56.984 C153.7984,56.44 153.6064,56.216 153.2544,56.216 C152.9984,56.216 152.6144,56.504 152.1984,56.952 C151.9744,56.728 151.7504,56.536 151.4624,56.44 C151.3344,56.408 151.2064,56.376 151.0784,56.376 C149.3504,56.376 147.7184,60.024 147.6864,61.336 C147.6864,61.592 147.6864,61.784 147.7504,61.912 C147.8144,62.136 148.0064,62.328 148.1984,62.328 L148.2624,62.328 C148.4544,62.328 148.6784,62.2 148.8384,62.04 C148.9664,61.912 149.2864,61.464 149.7024,60.888 C150.3744,59.896 151.0464,58.936 152.1344,57.688 C152.1984,57.784 152.1984,57.912 152.1984,58.072 L152.1984,58.552 C152.1984,58.808 152.2304,59 152.3904,59 L152.4864,59 C152.6144,59 152.7424,58.936 152.8384,58.776 C152.8704,58.712 152.8704,58.616 152.8704,58.52 C152.8704,58.136 152.6464,57.592 152.4544,57.272 C152.8064,56.92 153.0944,56.664 153.2544,56.664 C153.3184,56.664 153.3504,56.76 153.3504,56.984 C153.3504,57.592 153.2544,58.392 153.2544,59.16 C153.2544,60.312 153.4784,61.432 154.5344,61.752 C154.6304,61.784 154.7584,61.816 154.8864,61.816 C155.7824,61.816 157.0944,60.984 158.6304,58.808 C159.7184,57.304 160.9344,55.096 162.2144,52.024 L161.7024,54.392 C161.2224,56.888 160.8384,59.32 160.8384,61.144 C160.8384,62.296 160.9984,63.192 161.3504,63.736 C161.6384,64.184 161.9904,64.376 162.4064,64.376 Z M148.5824,61.56 L148.5824,61.528 C148.5824,61.112 149.9584,57.08 151.3024,57.08 C151.4944,57.08 151.6864,57.144 151.8784,57.336 C151.0144,58.2 150.0544,59.608 149.3504,60.6 C148.9344,61.176 148.8064,61.368 148.6784,61.464 C148.6144,61.56 148.5824,61.56 148.5824,61.56 Z M170.40704,62.232 C172.77504,62.232 175.55904,60.088 177.09504,58.52 C177.12704,58.488 177.12704,58.456 177.12704,58.424 C177.12704,58.296 176.99904,58.104 176.83904,58.104 C176.77504,58.104 176.74304,58.136 176.67904,58.168 C176.55104,58.264 176.51904,58.552 176.42304,58.68 C174.95104,60.216 172.55104,62.008 170.34304,62.008 C170.21504,62.008 170.05504,61.976 169.92704,61.976 C169.09504,61.88 168.35904,61.048 168.35904,59.96 C168.35904,59.832 168.39104,59.736 168.39104,59.608 C168.39104,59.512 168.51904,59.448 168.64704,59.416 C169.06304,59.256 171.30304,58.36 171.97504,57.368 C172.16704,57.112 172.23104,56.856 172.23104,56.632 C172.23104,56.184 171.91104,55.832 171.30304,55.832 L171.14304,55.832 C170.56704,55.832 169.60704,56.28 168.93504,56.984 C168.16704,57.752 167.91104,58.712 167.87904,59.576 L167.87904,59.736 C167.87904,60.952 168.58304,61.976 169.83104,62.168 C170.02304,62.2 170.21504,62.232 170.40704,62.232 Z M168.99904,58.552 C169.25504,57.688 170.82304,56.728 171.27104,56.728 C171.33504,56.728 171.36704,56.728 171.36704,56.792 C171.36704,56.856 171.33504,56.952 171.27104,57.048 C170.59904,57.752 169.73504,58.264 168.99904,58.552 Z M176.71168,63.736 C176.96768,63.736 177.25568,63.64 177.31968,63.448 C177.31968,63.416 179.33568,53.72 181.03168,53.72 C181.19168,53.72 181.35168,53.816 181.51168,54.008 C182.88768,57.272 183.84768,58.52 186.34368,58.52 C187.17568,58.52 188.16768,58.392 189.41568,58.136 C189.60768,58.104 189.70368,58.008 189.70368,57.88 C189.70368,57.752 189.60768,57.624 189.47968,57.496 C189.22368,57.56 188.80768,57.848 188.55168,57.88 C187.49568,58.072 186.63168,58.168 185.92768,58.168 C184.99968,58.168 184.35968,57.976 183.87968,57.56 C183.14368,56.888 182.66368,54.68 181.89568,53.624 C181.67168,53.336 181.44768,53.176 181.19168,53.176 C179.84768,53.176 178.34368,57.464 177.38368,60.44 L177.99168,56.664 C177.99168,56.376 177.73568,56.248 177.47968,56.248 C177.22368,56.248 176.93568,56.376 176.83968,56.568 C176.548771,57.208 176.522325,57.6364298 176.51992,57.9013734 L176.51968,58.04 C176.51968,58.296 176.58368,58.616 176.80768,58.744 L176.23168,63.448 C176.23168,63.64 176.45568,63.736 176.71168,63.736 Z M190.56832,55.512 C190.69632,55.512 190.82432,55.384 190.82432,55.192 C190.82432,55 190.69632,54.872 190.56832,54.872 C190.44032,54.872 190.34432,55 190.34432,55.192 C190.34432,55.384 190.44032,55.512 190.56832,55.512 Z M190.31232,61.688 C192.39232,61.688 196.61632,59.256 197.64032,58.488 C197.70432,58.424 197.76832,58.296 197.76832,58.168 C197.76832,58.136 197.76832,58.072 197.73632,58.04 C197.73632,57.944 197.67232,57.912 197.57632,57.912 C197.51232,57.912 197.41632,57.944 197.35232,58.008 C197.19232,58.104 196.84032,58.584 196.42432,58.84 C194.85632,59.832 192.16832,61.432 190.69632,61.432 C190.21632,61.432 189.86432,61.272 189.70432,60.824 C189.64032,60.632 189.60832,60.408 189.60832,60.184 C189.60832,58.904 190.40832,57.208 190.40832,57.208 L190.40832,57.144 C190.40832,56.984 190.34432,56.76 190.15232,56.664 L190.05632,56.632 L190.05632,56.632 C189.89632,56.632 189.60832,56.76 189.54432,56.856 L189.540796,56.8643952 L189.514495,56.9291421 C189.388252,57.2461701 188.90432,58.5394783 188.90432,59.736 C188.90432,60.216 188.96832,60.664 189.16032,61.048 C189.32032,61.496 189.73632,61.688 190.31232,61.688 Z M196.61696,62.328 C196.80896,62.328 197.03296,62.2 197.19296,62.04 C197.32096,61.912 197.64096,61.464 198.05696,60.888 C198.72896,59.928 199.40096,58.968 200.48896,57.72 C200.55296,57.816 200.55296,57.944 200.55296,58.104 L200.55296,58.584 C200.55296,58.84 200.58496,59.032 200.74496,59.032 L200.84096,59.032 C200.96896,59.032 201.03296,58.968 201.12896,58.872 C201.22496,58.744 201.28896,58.712 201.28896,58.648 L201.28896,58.584 C201.22496,58.168 201.06496,57.72 200.80896,57.304 C201.16096,56.952 201.44896,56.696 201.60896,56.696 C201.64096,56.696 201.67296,56.792 201.67296,57.016 C201.67296,57.56 201.60896,58.232 201.60896,58.904 C201.60896,60.12 201.80096,61.304 202.88896,61.624 C203.08096,61.688 203.27296,61.688 203.46496,61.688 C205.09696,61.688 207.56096,60.248 209.64096,58.52 C209.70496,58.488 209.73696,58.36 209.73696,58.264 C209.73696,58.2 209.70496,58.104 209.67296,58.072 C209.64096,58.04 209.57696,58.008 209.51296,58.008 C209.41696,58.008 209.28896,58.04 209.12896,58.2 C208.90496,58.36 208.84096,58.616 208.61696,58.776 C206.69696,60.28 204.80896,61.496 203.46496,61.496 C203.24096,61.496 203.04896,61.464 202.85696,61.4 C202.12096,61.112 201.92896,60.344 201.92896,59.448 C201.92896,58.584 202.12096,57.624 202.12096,57.016 C202.12096,56.472 201.92896,56.248 201.60896,56.248 C201.35296,56.248 200.96896,56.536 200.55296,56.984 C200.32896,56.76 200.10496,56.568 199.81696,56.472 C199.68896,56.44 199.56096,56.408 199.43296,56.408 C197.70496,56.408 196.10496,60.056 196.07296,61.336 C196.07296,61.592 196.07296,61.784 196.13696,61.912 C196.20096,62.136 196.39296,62.328 196.58496,62.328 L196.61696,62.328 Z M196.93696,61.56 L196.93696,61.528 C196.93696,61.112 198.31296,57.112 199.65696,57.112 C199.84896,57.112 200.04096,57.176 200.23296,57.368 C199.36896,58.232 198.40896,59.64 197.70496,60.6 C197.28896,61.176 197.16096,61.368 197.03296,61.464 C196.96896,61.56 196.93696,61.56 196.93696,61.56 Z M211.3376,66.104 C211.9136,66.104 212.5856,65.88 213.4496,65.336 C214.9216,64.408 217.1936,62.392 220.0736,58.456 C220.1056,58.392 220.1056,58.36 220.1056,58.296 C220.1056,58.136 219.9776,57.976 219.7856,57.976 C219.6896,57.976 219.5616,58.04 219.4336,58.168 C216.5856,62.04 214.6656,64.216 213.2576,65.112 C212.5216,65.592 211.9456,65.784 211.4656,65.784 C209.9296,65.784 209.5456,63.768 209.5456,61.752 C209.5456,60.632 209.6736,59.512 209.7696,58.776 C210.9856,57.048 216.5856,48.664 217.6736,44.792 C217.7696,44.472 217.8336,44.152 217.8336,43.864 C217.8336,43.064 217.4496,42.52 216.8096,42.52 C216.4896,42.52 216.1056,42.648 215.6896,42.968 C212.9056,44.92 210.3776,52.088 209.6416,55.128 C209.4176,56.152 209.2576,57.304 209.0976,58.328 C209.0016,58.488 208.9376,58.552 208.9376,58.584 L209.0656,58.648 C208.9696,59.32 208.9056,60.152 208.9056,61.048 C208.9056,63.448 209.3856,66.104 211.3376,66.104 Z M209.9616,57.72 C210.0576,56.984 210.2176,56.024 210.4096,55.288 C211.0176,52.664 213.5136,45.016 215.9456,43.32 C216.2656,43.096 216.5536,42.968 216.7776,42.968 C217.2576,42.968 217.4816,43.416 217.4816,44.024 C217.4816,44.184 217.4496,44.408 217.4176,44.6 C216.7456,47.608 212.5536,54.36 209.9616,57.72 Z" id="Typeofmaterial" stroke="#1D1D1B" stroke-width="0.5"></path>
                <path d="M20.8176,61.12 C31.6976,61.12 41.1376,49.2 41.1376,33.52 C41.1376,17.76 32.3376,6.08 21.0576,6.08 C10.1776,6.08 0.7376,18.08 0.7376,33.84 C0.7376,49.6 9.5376,61.12 20.8176,61.12 Z M21.0576,60.4 C12.4176,60.4 7.4576,53.28 7.4576,33.68 C7.4576,13.92 12.2576,6.8 20.8176,6.8 C29.4576,6.8 34.4176,14.08 34.4176,33.68 C34.4176,53.44 29.6176,60.4 21.0576,60.4 Z M85.0592,60 L85.0592,59.6 C78.0192,59.52 76.4992,58.8 76.4992,54.32 L76.4992,42.4 L88.0992,42.4 L88.0992,38.88 L76.4992,38.88 L76.4992,7.2 L73.7792,7.2 L46.8192,39.92 L46.8192,42.4 L70.6592,42.4 L70.6592,54.32 C70.6592,58.96 68.6592,59.52 61.6992,59.6 L61.6992,60 L85.0592,60 Z M70.6592,38.88 L48.6592,38.88 L70.4992,12.32 L70.6592,12.32 L70.6592,38.88 Z M88.1808,77.2 L104.9008,38.96 L121.9408,0.32 L120.6608,0.32 L103.9408,38.64 L86.9008,77.2 L88.1808,77.2 Z" id="04/"></path>
            </g>
        </g>
    </g>
</svg>