<?xml version="1.0" encoding="UTF-8"?>
<svg width="230px" height="82px" viewBox="0 0 230 82" version="1.1" xmlns="http://www.w3.org/2000/svg" xmlns:xlink="http://www.w3.org/1999/xlink">
    <title>05. Your Timeline</title>
    <g id="----→-Iterations" stroke="none" stroke-width="1" fill="none" fill-rule="evenodd">
        <g id="Artboard" transform="translate(-1132.000000, -178.000000)" fill="#000000" fill-rule="nonzero">
            <g id="05.-Your-Timeline" transform="translate(1132.000000, 178.000000)">
                <path d="M156.87072,48.112 C159.68672,48.112 163.33472,40.432 165.60672,32.72 C167.94272,31.152 170.08672,30.192 172.99872,29.392 C173.09472,29.36 173.15872,29.264 173.15872,29.2 L173.15872,29.136 C173.12672,29.04 173.03072,28.976 172.96672,28.976 L172.90272,28.976 C170.11872,29.744 168.03872,30.64 165.79872,32.08 C166.95072,28.016 168.48672,22.256 168.48672,17.808 C168.48672,17.232 168.48672,16.688 168.42272,16.176 C168.35872,15.536 167.97472,15.184 167.65472,15.184 C166.59872,15.184 164.19872,18.672 161.44672,22.672 C160.00672,24.752 153.95872,34.128 151.62272,34.128 C151.46272,34.128 151.33472,34.096 151.20672,34 C150.50272,33.488 150.27872,32.304 150.27872,30.96 C150.27872,29.04 150.75872,26.768 151.04672,25.616 C151.20672,25.744 151.36672,25.872 151.59072,25.968 L151.65472,25.968 C151.71872,25.968 151.81472,25.904 151.87872,25.84 L151.87872,25.776 C151.87872,25.712 151.81472,25.616 151.75072,25.552 C151.49472,25.456 151.30272,25.296 151.17472,25.136 C152.03872,21.872 153.35072,18.384 154.53472,16.176 C154.63072,16.016 154.66272,15.856 154.66272,15.728 C154.66272,15.568 154.59872,15.472 154.43872,15.44 L154.40672,15.44 C154.18272,15.44 153.57472,16.112 152.87072,17.168 C151.97472,18.576 150.15072,21.68 150.15072,23.792 C150.15072,24.272 150.24672,24.656 150.43872,25.008 C150.11872,26.32 149.60672,28.56 149.60672,30.576 C149.60672,32.208 149.92672,33.712 150.95072,34.416 C151.11072,34.544 151.30272,34.576 151.52672,34.576 C154.24672,34.576 160.26272,25.168 161.79872,22.896 C164.45472,19.024 166.82272,15.632 167.65472,15.632 C167.71872,15.632 167.78272,15.824 167.84672,16.24 C167.87872,16.496 167.87872,16.816 167.87872,17.136 C167.87872,21.2 165.76672,29.072 164.71072,32.816 C161.03072,35.28 158.21472,38.32 156.51872,41.072 C155.68672,42.384 155.14272,43.632 154.88672,44.688 C154.79072,45.136 154.72672,45.52 154.72672,45.904 C154.72672,46.48 154.85472,46.928 155.11072,47.312 C155.46272,47.792 156.00672,48.08 156.80672,48.112 L156.87072,48.112 Z M150.63072,24.304 C150.59872,24.144 150.56672,23.952 150.56672,23.792 C150.56672,21.84 152.32672,18.832 153.22272,17.392 L153.28672,17.328 C152.32672,19.312 151.36672,21.84 150.63072,24.304 Z M156.87072,47.696 L156.80672,47.696 C156.16672,47.664 155.75072,47.44 155.46272,47.056 C155.27072,46.768 155.17472,46.384 155.17472,45.904 C155.17472,45.584 155.20672,45.2 155.30272,44.784 C155.52672,43.792 156.07072,42.576 156.87072,41.296 C158.47072,38.704 161.09472,35.824 164.51872,33.456 C162.31072,40.848 159.43072,47.696 156.87072,47.696 Z M172.90336,33.392 C173.44736,33.392 173.86336,32.592 174.08736,32.208 C174.34336,31.76 174.56736,31.184 174.72736,30.576 C174.82336,30.256 174.88736,29.936 174.91936,29.616 C175.65536,29.648 176.35936,29.68 177.03136,29.68 C178.34336,29.68 179.46336,29.584 180.07136,29.232 C180.13536,29.168 180.16736,29.072 180.16736,29.008 C180.16736,28.912 180.10336,28.848 179.97536,28.848 C179.91136,28.848 179.87936,28.848 179.81536,28.88 C179.14336,29.264 177.73536,29.392 176.16736,29.392 C175.78336,29.392 175.36736,29.36 174.95136,29.36 L174.98336,28.88 L174.98336,28.88 C174.98336,28.592 174.95136,28.304 174.85536,28.016 L174.79136,27.856 C174.66336,27.568 174.37536,27.184 174.08736,27.024 C173.83136,26.896 173.54336,26.832 173.25536,26.832 C172.90336,26.832 172.55136,26.928 172.32736,27.152 L172.29536,27.152 L172.16736,27.28 C172.03936,27.472 171.94336,27.632 171.91136,27.824 L171.91136,28.016 C171.91136,28.528 172.23136,28.88 172.77536,29.136 C172.39136,29.936 172.03936,31.024 172.03936,31.952 C172.03936,32.432 172.13536,32.848 172.35936,33.168 C172.55136,33.328 172.71136,33.392 172.90336,33.392 Z M172.87136,28.976 C172.45536,28.752 172.19936,28.464 172.19936,28.08 L172.23136,27.888 L172.23136,27.888 C172.26336,27.696 172.39136,27.472 172.71136,27.312 C172.90336,27.248 173.09536,27.184 173.28736,27.184 C173.51136,27.184 173.73536,27.248 173.89536,27.344 C174.11936,27.44 174.34336,27.696 174.43936,27.92 C174.34336,27.792 174.21536,27.728 174.08736,27.728 C173.73536,27.728 173.35136,28.176 173.22336,28.4 L173.09536,28.592 L173.12736,28.592 L173.03136,28.688 L172.87136,28.976 Z M174.59936,29.36 C174.27936,29.328 173.95936,29.296 173.70336,29.232 C173.95936,28.688 174.24736,28.272 174.53536,28.176 C174.59936,28.368 174.63136,28.624 174.63136,28.88 L174.59936,29.36 L174.59936,29.36 Z M172.99936,32.944 C172.90336,32.944 172.83936,32.784 172.83936,32.528 C172.83936,31.824 173.15936,30.448 173.60736,29.424 C173.89536,29.488 174.24736,29.552 174.56736,29.584 C174.53536,29.872 174.47136,30.192 174.37536,30.512 C174.24736,31.056 174.02336,31.6 173.76736,32.016 C173.38336,32.688 173.15936,32.944 172.99936,32.944 Z M180.648,34.256 C181.992,34.256 183.496,31.632 184.616,29.072 C184.584,29.296 184.552,29.552 184.552,29.808 C184.552,30.864 184.936,32.112 185.832,32.304 C186.024,32.368 186.248,32.368 186.472,32.368 C188.968,32.368 192.296,29.488 192.328,29.488 C192.392,29.36 192.424,29.264 192.424,29.168 C192.424,29.008 192.296,28.88 192.136,28.88 C192.04,28.88 191.944,28.912 191.848,29.008 C191.816,29.008 188.808,32.208 186.568,32.208 C186.408,32.208 186.248,32.176 186.088,32.144 C185.416,31.984 185.192,31.312 185.192,30.48 C185.192,29.264 185.704,27.696 185.96,27.088 C186.024,26.992 186.024,26.896 186.024,26.8 C186.024,26.608 185.864,26.512 185.64,26.512 C185.352,26.512 185.032,26.64 184.936,26.864 L184.936,26.992 C184.936,28.432 182.408,33.744 180.84,33.744 L180.712,33.744 C180.36,33.552 180.2,32.944 180.2,32.08 C180.2,30.992 180.456,29.552 180.904,28.176 C181.096,27.632 181.512,27.6 181.576,27.344 L181.576,27.184 C181.576,26.736 181.288,26.448 180.968,26.448 C180.648,26.448 180.264,26.704 180.104,27.344 C180.104,27.344 179.272,29.808 179.272,31.824 C179.272,32.88 179.528,33.808 180.232,34.16 C180.36,34.224 180.488,34.256 180.648,34.256 Z M192.04064,34.736 C192.29664,34.736 192.58464,34.64 192.64864,34.448 C192.64864,34.416 194.66464,24.72 196.36064,24.72 C196.52064,24.72 196.68064,24.816 196.84064,25.008 C198.21664,28.272 199.17664,29.52 201.67264,29.52 C202.50464,29.52 203.49664,29.392 204.74464,29.136 C204.93664,29.104 205.03264,29.008 205.03264,28.88 C205.03264,28.752 204.93664,28.624 204.80864,28.496 C204.55264,28.56 204.13664,28.848 203.88064,28.88 C202.82464,29.072 201.96064,29.168 201.25664,29.168 C200.32864,29.168 199.68864,28.976 199.20864,28.56 C198.47264,27.888 197.99264,25.68 197.22464,24.624 C197.00064,24.336 196.77664,24.176 196.52064,24.176 C195.17664,24.176 193.67264,28.464 192.71264,31.44 L193.32064,27.664 C193.32064,27.376 193.06464,27.248 192.80864,27.248 C192.55264,27.248 192.26464,27.376 192.16864,27.568 C191.877731,28.208 191.851285,28.6364298 191.84888,28.9013734 L191.84864,29.04 C191.84864,29.296 191.91264,29.616 192.13664,29.744 L191.56064,34.448 C191.56064,34.64 191.78464,34.736 192.04064,34.736 Z M143.94144,77.376 C144.16544,77.376 144.38944,77.28 144.42144,77.216 C144.70944,76.768 144.83744,76.384 144.83744,76.064 C144.83744,75.488 144.48544,75.168 144.48544,75.136 C144.90144,68.8 146.62944,60.672 147.90944,54.72 C148.19744,53.76 148.32544,52.896 148.48544,52.128 C149.98944,52.096 151.55744,52.064 153.15744,52.064 C156.38944,52.064 159.71744,52.16 162.69344,52.416 C162.66144,52.448 162.66144,52.48 162.66144,52.48 C162.66144,52.576 162.78944,52.64 162.85344,52.704 C162.98144,52.736 163.39744,52.768 163.84544,52.768 C164.22944,52.768 164.67744,52.736 164.99744,52.672 C165.09344,52.672 165.12544,52.608 165.12544,52.544 C165.12544,52.48 165.02944,52.416 164.93344,52.384 C164.54944,52.256 163.74944,52.256 163.23744,52.224 C159.49344,51.872 154.78944,51.648 150.72544,51.648 C149.98944,51.648 149.28544,51.68 148.58144,51.68 C148.77344,50.656 148.83744,49.824 148.83744,49.12 C148.83744,47.36 148.32544,46.464 147.42944,46.208 C147.26944,46.176 147.10944,46.144 146.91744,46.144 C144.84544,46.144 141.27894,48.741 137.825752,51.576875 L137.235187,52.064925 C136.94076,52.30968 136.64784,52.5552 136.35744,52.8 C129.50944,54.176 126.85344,57.12 126.85344,58.528 C126.85344,59.008 127.14144,59.328 127.71744,59.328 C128.19744,59.328 128.86944,59.104 129.70144,58.56 C131.94144,57.088 134.14944,54.976 136.26144,53.216 C139.81344,52.512 143.74944,52.224 147.71744,52.16 C147.68544,52.192 147.68544,52.256 147.68544,52.32 L147.65344,52.384 C147.41584,54.0736 146.68819,58.36591 145.899488,62.9003183 L145.75551,63.7268984 C144.672065,69.938375 143.52344,76.334 143.39744,76.928 C143.46144,77.248 143.68544,77.376 143.94144,77.376 Z M136.83744,52.704 L137.133252,52.4566742 L137.133252,52.4566742 L137.725673,51.9645068 C141.182238,49.1069474 144.625229,46.528 146.62944,46.528 C146.82144,46.528 146.94944,46.56 147.10944,46.592 C147.81344,46.784 148.13344,47.424 148.13344,48.672 C148.13344,49.44 148.03744,50.4 147.78144,51.68 C143.97344,51.776 140.35744,52.064 136.83744,52.704 Z M127.74944,59.072 C127.33344,59.072 127.10944,58.848 127.10944,58.464 C127.10944,57.28 129.57344,54.592 135.74944,53.312 C133.79744,54.976 131.68544,56.96 129.57344,58.336 C128.80544,58.848 128.19744,59.072 127.74944,59.072 Z M153.22208,60.512 C153.35008,60.512 153.47808,60.384 153.47808,60.192 C153.47808,60 153.35008,59.872 153.22208,59.872 C153.09408,59.872 152.99808,60 152.99808,60.192 C152.99808,60.384 153.09408,60.512 153.22208,60.512 Z M152.96608,66.688 C155.04608,66.688 159.27008,64.256 160.29408,63.488 C160.35808,63.424 160.42208,63.296 160.42208,63.168 C160.42208,63.136 160.42208,63.072 160.39008,63.04 C160.39008,62.944 160.32608,62.912 160.23008,62.912 C160.16608,62.912 160.07008,62.944 160.00608,63.008 C159.84608,63.104 159.49408,63.584 159.07808,63.84 C157.51008,64.832 154.82208,66.432 153.35008,66.432 C152.87008,66.432 152.51808,66.272 152.35808,65.824 C152.29408,65.632 152.26208,65.408 152.26208,65.184 C152.26208,63.904 153.06208,62.208 153.06208,62.208 L153.06208,62.144 C153.06208,61.984 152.99808,61.76 152.80608,61.664 L152.71008,61.632 L152.71008,61.632 C152.55008,61.632 152.26208,61.76 152.19808,61.856 L152.194556,61.8643952 L152.168255,61.9291421 C152.042012,62.2461701 151.55808,63.5394783 151.55808,64.736 C151.55808,65.216 151.62208,65.664 151.81408,66.048 C151.97408,66.496 152.39008,66.688 152.96608,66.688 Z M159.81472,67.776 C160.07072,67.776 160.39072,67.552 160.71072,66.976 C161.60672,65.44 164.96672,57.344 166.75872,57.344 C166.85472,57.344 166.95072,57.344 167.04672,57.408 C167.23872,57.504 167.39872,57.792 167.39872,58.24 C167.39872,58.368 167.39872,58.496 167.36672,58.624 C167.17472,60.64 166.02272,64.736 165.76672,65.664 C165.73472,65.76 165.73472,65.856 165.73472,65.92 C165.73472,66.176 165.89472,66.304 166.08672,66.304 C166.21472,66.304 166.40672,66.24 166.56672,66.08 L166.59872,66.048 L166.63072,66.048 C166.63072,66.048 168.35872,63.52 169.51072,63.232 C169.57472,63.232 169.60672,63.2 169.63872,63.2 C170.40672,63.2 170.05472,65.056 171.30272,65.76 C171.68672,65.984 172.16672,66.08 172.64672,66.08 C174.75872,66.08 177.60672,64.384 178.91872,63.392 C178.98272,63.328 178.98272,63.264 178.98272,63.2 C178.98272,63.136 178.95072,63.04 178.85472,63.04 C178.82272,63.04 178.75872,63.072 178.69472,63.104 C178.56672,63.2 178.40672,63.456 178.27872,63.52 C177.12672,64.384 174.79072,65.76 172.99872,65.76 C172.55072,65.76 172.10272,65.664 171.75072,65.472 C170.63072,64.8 170.95072,62.656 169.86272,62.656 C169.79872,62.656 169.73472,62.656 169.67072,62.688 C168.77472,62.912 167.39872,64.544 166.69472,65.408 L166.82272,64.864 L166.800201,64.8651852 L166.800201,64.8651852 L166.798,64.868 L166.809683,64.8237037 C166.833387,64.7288889 166.876053,64.544 166.91872,64.288 C167.17472,62.976 167.75072,59.84 167.78272,58.528 L167.78272,58.432 C167.78272,57.728 167.39872,57.248 166.88672,57.12 L166.69472,57.088 L166.69472,57.088 C164.61472,57.088 161.57472,63.904 160.42272,65.952 C160.42272,65.952 160.93472,64.192 161.25472,62.944 C161.28672,62.784 161.31872,62.656 161.31872,62.528 C161.31872,62.016 160.99872,61.76 160.67872,61.76 C160.45472,61.76 160.19872,61.888 160.07072,62.176 C159.94272,62.4 159.68672,63.104 159.62272,63.712 C159.62272,63.776 159.75072,64.096 159.75072,64.224 L159.75072,64.256 C159.62272,65.408 159.27072,66.592 159.27072,67.136 C159.27072,67.2 159.27072,67.264 159.30272,67.328 C159.39872,67.584 159.59072,67.776 159.81472,67.776 Z M180.93536,67.232 C183.30336,67.232 186.08736,65.088 187.62336,63.52 C187.65536,63.488 187.65536,63.456 187.65536,63.424 C187.65536,63.296 187.52736,63.104 187.36736,63.104 C187.30336,63.104 187.27136,63.136 187.20736,63.168 C187.07936,63.264 187.04736,63.552 186.95136,63.68 C185.47936,65.216 183.07936,67.008 180.87136,67.008 C180.74336,67.008 180.58336,66.976 180.45536,66.976 C179.62336,66.88 178.88736,66.048 178.88736,64.96 C178.88736,64.832 178.91936,64.736 178.91936,64.608 C178.91936,64.512 179.04736,64.448 179.17536,64.416 C179.59136,64.256 181.83136,63.36 182.50336,62.368 C182.69536,62.112 182.75936,61.856 182.75936,61.632 C182.75936,61.184 182.43936,60.832 181.83136,60.832 L181.67136,60.832 C181.09536,60.832 180.13536,61.28 179.46336,61.984 C178.69536,62.752 178.43936,63.712 178.40736,64.576 L178.40736,64.736 C178.40736,65.952 179.11136,66.976 180.35936,67.168 C180.55136,67.2 180.74336,67.232 180.93536,67.232 Z M179.52736,63.552 C179.78336,62.688 181.35136,61.728 181.79936,61.728 C181.86336,61.728 181.89536,61.728 181.89536,61.792 C181.89536,61.856 181.86336,61.952 181.79936,62.048 C181.12736,62.752 180.26336,63.264 179.52736,63.552 Z M189.288,71.104 C189.864,71.104 190.536,70.88 191.4,70.336 C192.872,69.408 195.144,67.392 198.024,63.456 C198.056,63.392 198.056,63.36 198.056,63.296 C198.056,63.136 197.928,62.976 197.736,62.976 C197.64,62.976 197.512,63.04 197.384,63.168 C194.536,67.04 192.616,69.216 191.208,70.112 C190.472,70.592 189.896,70.784 189.416,70.784 C187.88,70.784 187.496,68.768 187.496,66.752 C187.496,65.632 187.624,64.512 187.72,63.776 C188.936,62.048 194.536,53.664 195.624,49.792 C195.72,49.472 195.784,49.152 195.784,48.864 C195.784,48.064 195.4,47.52 194.76,47.52 C194.44,47.52 194.056,47.648 193.64,47.968 C190.856,49.92 188.328,57.088 187.592,60.128 C187.368,61.152 187.208,62.304 187.048,63.328 C186.952,63.488 186.888,63.552 186.888,63.584 L187.016,63.648 C186.92,64.32 186.856,65.152 186.856,66.048 C186.856,68.448 187.336,71.104 189.288,71.104 Z M187.912,62.72 C188.008,61.984 188.168,61.024 188.36,60.288 C188.968,57.664 191.464,50.016 193.896,48.32 C194.216,48.096 194.504,47.968 194.728,47.968 C195.208,47.968 195.432,48.416 195.432,49.024 C195.432,49.184 195.4,49.408 195.368,49.6 C194.696,52.608 190.504,59.36 187.912,62.72 Z M198.85664,60.512 C198.98464,60.512 199.11264,60.384 199.11264,60.192 C199.11264,60 198.98464,59.872 198.85664,59.872 C198.72864,59.872 198.63264,60 198.63264,60.192 C198.63264,60.384 198.72864,60.512 198.85664,60.512 Z M198.60064,66.688 C200.68064,66.688 204.90464,64.256 205.92864,63.488 C205.99264,63.424 206.05664,63.296 206.05664,63.168 C206.05664,63.136 206.05664,63.072 206.02464,63.04 C206.02464,62.944 205.96064,62.912 205.86464,62.912 C205.80064,62.912 205.70464,62.944 205.64064,63.008 C205.48064,63.104 205.12864,63.584 204.71264,63.84 C203.14464,64.832 200.45664,66.432 198.98464,66.432 C198.50464,66.432 198.15264,66.272 197.99264,65.824 C197.92864,65.632 197.89664,65.408 197.89664,65.184 C197.89664,63.904 198.69664,62.208 198.69664,62.208 L198.69664,62.144 C198.69664,61.984 198.63264,61.76 198.44064,61.664 L198.34464,61.632 L198.34464,61.632 C198.18464,61.632 197.89664,61.76 197.83264,61.856 C197.83264,61.856 197.19264,63.36 197.19264,64.736 C197.19264,65.216 197.25664,65.664 197.44864,66.048 C197.60864,66.496 198.02464,66.688 198.60064,66.688 Z M205.25728,67.328 C205.44928,67.328 205.60928,67.232 205.67328,67.04 C205.89728,66.56 207.65728,62.976 208.93728,62.976 C209.19328,62.976 209.44928,63.136 209.64128,63.52 C210.92128,65.792 212.39328,66.688 213.92928,66.688 C216.00928,66.688 218.15328,65.056 219.88128,63.232 L219.91328,63.136 L219.91328,63.136 C219.91328,63.008 219.81728,62.848 219.68928,62.848 C219.65728,62.848 219.59328,62.88 219.56128,62.912 C219.36928,63.104 219.14528,63.52 218.95328,63.68 C217.35328,65.28 215.72128,66.496 214.15328,66.496 C212.77728,66.496 211.46528,65.6 210.24928,63.264 C209.86528,62.592 209.44928,62.304 208.96928,62.304 C207.91328,62.304 206.72928,63.68 205.89728,65.312 L207.17728,61.28 C207.24128,61.088 207.27328,60.928 207.27328,60.768 C207.27328,60.448 207.08128,60.288 206.85728,60.288 C206.50528,60.288 206.02528,60.672 205.96128,61.28 C205.927398,61.5284706 205.921418,61.6453979 205.915205,61.7405186 L205.907871,61.8324348 C205.893626,61.9715986 205.857751,62.144 205.70528,62.72 L204.68128,66.624 C204.68128,66.688 204.64928,66.72 204.64928,66.752 C204.64928,67.104 204.96928,67.328 205.25728,67.328 Z M221.70592,67.232 C224.07392,67.232 226.85792,65.088 228.39392,63.52 C228.42592,63.488 228.42592,63.456 228.42592,63.424 C228.42592,63.296 228.29792,63.104 228.13792,63.104 C228.07392,63.104 228.04192,63.136 227.97792,63.168 C227.84992,63.264 227.81792,63.552 227.72192,63.68 C226.24992,65.216 223.84992,67.008 221.64192,67.008 C221.51392,67.008 221.35392,66.976 221.22592,66.976 C220.39392,66.88 219.65792,66.048 219.65792,64.96 C219.65792,64.832 219.68992,64.736 219.68992,64.608 C219.68992,64.512 219.81792,64.448 219.94592,64.416 C220.36192,64.256 222.60192,63.36 223.27392,62.368 C223.46592,62.112 223.52992,61.856 223.52992,61.632 C223.52992,61.184 223.20992,60.832 222.60192,60.832 L222.44192,60.832 C221.86592,60.832 220.90592,61.28 220.23392,61.984 C219.46592,62.752 219.20992,63.712 219.17792,64.576 L219.17792,64.736 C219.17792,65.952 219.88192,66.976 221.12992,67.168 C221.32192,67.2 221.51392,67.232 221.70592,67.232 Z M220.29792,63.552 C220.55392,62.688 222.12192,61.728 222.56992,61.728 C222.63392,61.728 222.66592,61.728 222.66592,61.792 C222.66592,61.856 222.63392,61.952 222.56992,62.048 C221.89792,62.752 221.03392,63.264 220.29792,63.552 Z" id="YourTimeline" stroke="#1D1D1B" stroke-width="0.5"></path>
                <path d="M25.0376,65.12 C35.9176,65.12 45.3576,53.2 45.3576,37.52 C45.3576,21.76 36.5576,10.08 25.2776,10.08 C14.3976,10.08 4.9576,22.08 4.9576,37.84 C4.9576,53.6 13.7576,65.12 25.0376,65.12 Z M25.2776,64.4 C16.6376,64.4 11.6776,57.28 11.6776,37.68 C11.6776,17.92 16.4776,10.8 25.0376,10.8 C33.6776,10.8 38.6376,18.08 38.6376,37.68 C38.6376,57.44 33.8376,64.4 25.2776,64.4 Z M69.0392,65.12 C79.8392,65.12 87.7592,56.96 87.7592,47.76 C87.7592,38.72 82.2392,31.6 69.3592,31.6 C64.9592,31.6 60.1592,33.36 57.1192,35.68 L57.9992,16.08 L85.6792,16.08 L86.2392,11.2 L57.1192,11.2 L56.0792,36.4 L57.0392,36.88 C61.0392,34 64.5592,32.64 69.1192,32.64 C76.8792,32.64 81.3592,38 81.3592,48.16 C81.3592,58.72 76.9592,64.4 68.2392,64.4 C63.0392,64.4 57.9992,61.28 57.2792,58.96 C59.5192,57.92 60.8792,56.16 60.8792,53.92 C60.8792,52 59.4392,50 57.0392,50 C54.6392,50 52.7192,52.16 52.7192,54.72 C52.7192,60.32 59.9192,65.12 69.0392,65.12 Z M88.9608,81.2 L105.6808,42.96 L122.7208,4.32 L121.4408,4.32 L104.7208,42.64 L87.6808,81.2 L88.9608,81.2 Z" id="05/"></path>
            </g>
        </g>
    </g>
</svg>