<?xml version="1.0" encoding="UTF-8"?>
<svg width="220px" height="82px" viewBox="0 0 220 82" version="1.1" xmlns="http://www.w3.org/2000/svg" xmlns:xlink="http://www.w3.org/1999/xlink">
    <title>06 Send a gift</title>
    <g id="----→-Iterations" stroke="none" stroke-width="1" fill="none" fill-rule="evenodd">
        <g id="Artboard" transform="translate(-1410.000000, -178.000000)" fill="#000000" fill-rule="nonzero">
            <g id="06-Send-a-gift" transform="translate(1410.000000, 178.000000)">
                <path d="M135.71008,40.456 C136.51008,40.456 137.88608,40.232 139.96608,39.72 C142.59008,39.048 144.44608,38.312 145.50208,37.448 C146.43008,36.712 146.84608,36.008 146.84608,35.272 C146.84608,34.376 146.20608,33.48 145.11808,32.616 C147.23008,31.336 149.27808,30.248 151.90208,28.744 C152.09408,28.648 152.51008,28.552 152.70208,28.424 C152.76608,28.392 152.86208,28.264 152.86208,28.136 C152.86208,28.104 152.86208,28.04 152.83008,27.976 C152.76608,27.88 152.67008,27.848 152.60608,27.848 C152.51008,27.848 152.41408,27.88 152.35008,27.912 C149.43808,29.576 147.07008,30.952 144.73408,32.328 C140.83008,29.448 134.11008,27.272 134.11008,22.76 C134.11008,20.392 135.96608,17.352 141.11808,13.224 C143.67808,11.176 145.63008,10.248 147.03808,10.152 L147.16608,10.152 C147.96608,10.152 148.57408,10.408 148.99008,10.888 C149.56608,11.592 149.79008,12.424 149.79008,13.352 C149.79008,15.496 148.57408,17.96 147.87008,19.56 C147.87008,19.496 147.83808,19.432 147.77408,19.4 L147.71008,19.4 C147.61408,19.4 147.51808,19.528 147.35808,19.688 C146.71808,20.84 146.55808,21.448 146.49408,21.832 C146.49408,21.896 146.46208,21.992 146.46208,22.088 C146.46208,22.312 146.55808,22.536 146.91008,22.568 L146.94208,22.568 C147.26208,22.568 147.48608,22.216 147.58208,22.024 C148.63808,20.04 150.30208,16.616 150.30208,13.736 C150.30208,12.552 150.04608,11.464 149.31008,10.632 C148.79808,10.056 148.15808,9.736 147.29408,9.736 L147.03808,9.736 C145.53408,9.832 143.48608,10.792 140.86208,12.904 C135.61408,17.128 133.66208,20.232 133.66208,22.728 C133.66208,26.064 137.08208,28.284 140.62808,30.495 L141.447125,31.0055749 L141.447125,31.0055749 L141.991198,31.3472736 C142.714104,31.804071 143.424542,32.2664615 144.09408,32.744 C140.47808,34.888 137.72608,36.68 136.15808,37.96 C135.07008,38.824 134.55808,39.464 134.55808,39.912 C134.55808,40.072 134.65408,40.2 134.81408,40.296 C135.00608,40.392 135.29408,40.456 135.71008,40.456 Z M135.64608,40.072 C135.42208,40.072 135.23008,40.072 135.13408,40.008 C135.03808,39.976 135.00608,39.912 135.00608,39.816 C135.00608,39.496 135.61408,38.952 136.41408,38.28 C137.98208,37 140.79808,35.208 144.44608,33 C145.40608,33.736 146.20608,34.6 146.20608,35.496 C146.20608,36.04 145.95008,36.584 145.24608,37.128 C144.22208,37.928 142.43008,38.664 139.87008,39.304 C137.91808,39.784 136.44608,40.072 135.64608,40.072 Z M154.46272,32.232 C156.83072,32.232 159.61472,30.088 161.15072,28.52 C161.18272,28.488 161.18272,28.456 161.18272,28.424 C161.18272,28.296 161.05472,28.104 160.89472,28.104 C160.83072,28.104 160.79872,28.136 160.73472,28.168 C160.60672,28.264 160.57472,28.552 160.47872,28.68 C159.00672,30.216 156.60672,32.008 154.39872,32.008 C154.27072,32.008 154.11072,31.976 153.98272,31.976 C153.15072,31.88 152.41472,31.048 152.41472,29.96 C152.41472,29.832 152.44672,29.736 152.44672,29.608 C152.44672,29.512 152.57472,29.448 152.70272,29.416 C153.11872,29.256 155.35872,28.36 156.03072,27.368 C156.22272,27.112 156.28672,26.856 156.28672,26.632 C156.28672,26.184 155.96672,25.832 155.35872,25.832 L155.19872,25.832 C154.62272,25.832 153.66272,26.28 152.99072,26.984 C152.22272,27.752 151.96672,28.712 151.93472,29.576 L151.93472,29.736 C151.93472,30.952 152.63872,31.976 153.88672,32.168 C154.07872,32.2 154.27072,32.232 154.46272,32.232 Z M153.05472,28.552 C153.31072,27.688 154.87872,26.728 155.32672,26.728 C155.39072,26.728 155.42272,26.728 155.42272,26.792 C155.42272,26.856 155.39072,26.952 155.32672,27.048 C154.65472,27.752 153.79072,28.264 153.05472,28.552 Z M160.35136,32.328 C160.54336,32.328 160.70336,32.232 160.76736,32.04 C160.99136,31.56 162.75136,27.976 164.03136,27.976 C164.28736,27.976 164.54336,28.136 164.73536,28.52 C166.01536,30.792 167.48736,31.688 169.02336,31.688 C171.10336,31.688 173.24736,30.056 174.97536,28.232 L175.00736,28.136 L175.00736,28.136 C175.00736,28.008 174.91136,27.848 174.78336,27.848 C174.75136,27.848 174.68736,27.88 174.65536,27.912 C174.46336,28.104 174.23936,28.52 174.04736,28.68 C172.44736,30.28 170.81536,31.496 169.24736,31.496 C167.87136,31.496 166.55936,30.6 165.34336,28.264 C164.95936,27.592 164.54336,27.304 164.06336,27.304 C163.00736,27.304 161.82336,28.68 160.99136,30.312 L162.27136,26.28 C162.33536,26.088 162.36736,25.928 162.36736,25.768 C162.36736,25.448 162.17536,25.288 161.95136,25.288 C161.59936,25.288 161.11936,25.672 161.05536,26.28 C160.95936,26.984 161.08736,26.632 160.79936,27.72 L159.77536,31.624 C159.77536,31.688 159.74336,31.72 159.74336,31.752 C159.74336,32.104 160.06336,32.328 160.35136,32.328 Z M180.992,40.936 C181.088,40.936 181.152,40.904 181.248,40.872 C181.376,40.808 181.44,40.68 181.44,40.584 C181.44,40.456 181.376,40.296 181.28,40.136 C181.024,39.976 180.736,39.72 180.672,39.464 C180.64,39.336 180.64,39.144 180.64,38.952 C180.64,38.216 180.8,37.064 181.056,35.56 C182.144,28.872 185.056,18.12 185.056,13.352 C185.056,11.88 184.8,10.984 184.128,10.92 C184.064,10.92 184.032,11.08 183.936,11.208 C183.936,11.24 183.936,11.24 183.968,11.24 C184,11.24 184.064,11.176 184.128,11.144 C184.16,11.112 184.192,11.112 184.224,11.112 C184.352,11.112 184.416,11.432 184.416,11.976 C184.416,15.368 182.112,27.784 180.896,35.496 C180.512,37.768 180.352,39.464 180.352,40.04 L180.352,40.232 L180.48,40.616 C180.576,40.808 180.768,40.936 180.992,40.936 Z M175.008,32.712 C175.296,32.712 175.648,32.488 176.032,31.848 C176.992,30.248 178.272,27.368 178.304,27.208 C178.656,27.976 178.688,28.264 178.976,28.264 C179.36,28.264 179.68,27.848 179.68,27.528 L179.68,27.496 C179.424,26.76 179.36,26.536 178.816,25.928 C179.936,22.952 182.176,14.248 183.68,11.656 C183.712,11.592 183.712,11.528 183.712,11.496 C183.712,11.528 183.68,11.56 183.648,11.624 C181.76,14.888 179.904,22.056 178.528,25.576 C178.304,25.352 177.888,25.256 177.44,25.256 C177.216,25.256 176.992,25.288 176.768,25.352 C175.264,25.864 174.048,29.128 174.048,31.08 C174.048,31.656 174.176,32.136 174.4,32.392 C174.56,32.552 174.752,32.712 175.008,32.712 Z M174.912,32.392 C174.912,32.392 174.88,32.392 174.88,32.36 C174.848,32.296 174.848,32.232 174.848,32.136 C174.848,30.92 176.448,26.44 177.568,26.44 C177.76,26.44 177.92,26.536 178.048,26.76 C177.376,28.392 176.384,30.504 175.776,31.4 C175.456,31.912 175.072,32.392 174.912,32.392 Z M197.56928,32.328 C197.76128,32.328 197.98528,32.2 198.14528,32.04 C198.27328,31.912 198.59328,31.464 199.00928,30.888 C199.68128,29.928 200.35328,28.968 201.44128,27.72 C201.50528,27.816 201.50528,27.944 201.50528,28.104 L201.50528,28.584 C201.50528,28.84 201.53728,29.032 201.69728,29.032 L201.79328,29.032 C201.92128,29.032 201.98528,28.968 202.08128,28.872 C202.17728,28.744 202.24128,28.712 202.24128,28.648 L202.24128,28.584 C202.17728,28.168 202.01728,27.72 201.76128,27.304 C202.11328,26.952 202.40128,26.696 202.56128,26.696 C202.59328,26.696 202.62528,26.792 202.62528,27.016 C202.62528,27.56 202.56128,28.232 202.56128,28.904 C202.56128,30.12 202.75328,31.304 203.84128,31.624 C204.03328,31.688 204.22528,31.688 204.41728,31.688 C206.04928,31.688 208.51328,30.248 210.59328,28.52 C210.65728,28.488 210.68928,28.36 210.68928,28.264 C210.68928,28.2 210.65728,28.104 210.62528,28.072 C210.59328,28.04 210.52928,28.008 210.46528,28.008 C210.36928,28.008 210.24128,28.04 210.08128,28.2 C209.85728,28.36 209.79328,28.616 209.56928,28.776 C207.64928,30.28 205.76128,31.496 204.41728,31.496 C204.19328,31.496 204.00128,31.464 203.80928,31.4 C203.07328,31.112 202.88128,30.344 202.88128,29.448 C202.88128,28.584 203.07328,27.624 203.07328,27.016 C203.07328,26.472 202.88128,26.248 202.56128,26.248 C202.30528,26.248 201.92128,26.536 201.50528,26.984 C201.28128,26.76 201.05728,26.568 200.76928,26.472 C200.64128,26.44 200.51328,26.408 200.38528,26.408 C198.65728,26.408 197.05728,30.056 197.02528,31.336 C197.02528,31.592 197.02528,31.784 197.08928,31.912 C197.15328,32.136 197.34528,32.328 197.53728,32.328 L197.56928,32.328 Z M197.88928,31.56 L197.88928,31.528 C197.88928,31.112 199.26528,27.112 200.60928,27.112 C200.80128,27.112 200.99328,27.176 201.18528,27.368 C200.32128,28.232 199.36128,29.64 198.65728,30.6 C198.24128,31.176 198.11328,31.368 197.98528,31.464 C197.92128,31.56 197.88928,31.56 197.88928,31.56 Z M159.74272,77.976 C159.87072,77.976 159.99872,77.912 160.12672,77.816 C160.736763,77.3148936 162.014329,74.3068646 163.171646,70.9633379 L163.387042,70.3330252 C163.849845,68.9611263 164.284677,67.5562553 164.63872,66.264 C166.39872,64.344 168.31872,63.384 171.35872,62.584 C171.45472,62.552 171.51872,62.488 171.51872,62.424 C171.51872,62.392 171.51872,62.36 171.48672,62.328 C171.45472,62.232 171.35872,62.168 171.26272,62.168 L171.23072,62.168 C168.41472,62.904 166.46272,64.056 164.73472,65.752 C165.24672,63.864 165.69472,63.224 165.95072,60.856 L165.95072,60.632 C165.95072,60.024 165.66272,59.672 165.31072,59.672 C165.21472,59.672 165.11872,59.704 165.02272,59.768 C164.86272,59.864 164.67072,60.152 164.38272,60.664 C163.00672,63.256 159.23072,68.856 155.51872,68.856 C154.84672,68.856 154.20672,68.664 153.56672,68.28 C151.61472,67.096 150.84672,65.048 150.84672,62.744 C150.84672,57.656 154.59072,51.192 157.75872,49.464 C158.46272,49.08 159.29472,48.824 160.03072,48.824 C161.15072,48.824 162.11072,49.4 162.23872,51.064 C162.27072,51.448 162.30272,51.896 162.30272,52.344 C162.30272,53.656 162.11072,55.224 161.37472,57.016 C161.37472,57.016 160.38272,57.816 160.38272,58.456 C160.38272,58.584 160.41472,58.712 160.54272,58.84 C160.63872,58.872 160.73472,58.904 160.83072,58.904 C161.18272,58.904 161.47072,58.52 161.50272,58.424 C162.59072,56.088 162.91072,54.104 162.91072,52.504 C162.91072,52.056 162.87872,51.64 162.84672,51.256 C162.68672,49.208 161.34272,48.44 159.90272,48.44 C159.07072,48.44 158.20672,48.696 157.50272,49.08 C154.23872,50.872 150.52672,57.24 150.52672,62.424 C150.52672,64.92 151.39072,67.16 153.53472,68.472 C154.23872,68.92 154.97472,69.08 155.67872,69.08 C159.51872,69.08 163.29472,63.64 164.76672,60.888 C164.92672,60.568 165.05472,60.44 165.08672,60.44 C165.15072,60.44 165.15072,60.536 165.15072,60.664 C165.15072,61.688 163.83872,66.552 163.77472,66.712 C161.53472,69.144 160.22272,72.024 159.58272,74.232 C159.32672,75.192 159.19872,76.024 159.16672,76.664 L159.16672,76.824 C159.16672,77.432 159.32672,77.848 159.58272,77.944 C159.64672,77.976 159.67872,77.976 159.74272,77.976 Z M159.71072,77.56 C159.64672,77.528 159.61472,77.336 159.61472,77.048 L159.61472,76.728 C159.61472,76.12 159.74272,75.32 159.99872,74.392 C160.57472,72.44 161.82272,69.56 163.64672,67.32 C162.39872,71.704 160.63872,76.824 159.80672,77.496 C159.74272,77.528 159.71072,77.56 159.71072,77.56 Z M172.38336,59.512 C172.51136,59.512 172.63936,59.384 172.63936,59.192 C172.63936,59 172.51136,58.872 172.38336,58.872 C172.25536,58.872 172.15936,59 172.15936,59.192 C172.15936,59.384 172.25536,59.512 172.38336,59.512 Z M172.12736,65.688 C174.20736,65.688 178.43136,63.256 179.45536,62.488 C179.51936,62.424 179.58336,62.296 179.58336,62.168 C179.58336,62.136 179.58336,62.072 179.55136,62.04 C179.55136,61.944 179.48736,61.912 179.39136,61.912 C179.32736,61.912 179.23136,61.944 179.16736,62.008 C179.00736,62.104 178.65536,62.584 178.23936,62.84 C176.67136,63.832 173.98336,65.432 172.51136,65.432 C172.03136,65.432 171.67936,65.272 171.51936,64.824 C171.45536,64.632 171.42336,64.408 171.42336,64.184 C171.42336,62.904 172.22336,61.208 172.22336,61.208 L172.22336,61.144 C172.22336,60.984 172.15936,60.76 171.96736,60.664 L171.87136,60.632 L171.87136,60.632 C171.71136,60.632 171.42336,60.76 171.35936,60.856 L171.355836,60.8643952 L171.329535,60.9291421 C171.203292,61.2461701 170.71936,62.5394783 170.71936,63.736 C170.71936,64.216 170.78336,64.664 170.97536,65.048 C171.13536,65.496 171.55136,65.688 172.12736,65.688 Z M178.368,77.816 C179.552,77.816 180.448,73.944 180.448,70.456 C180.448,68.696 180.192,67 179.68,65.976 C179.968,65.304 184.384,62.648 187.136,62.648 C187.36,62.648 187.584,62.68 187.808,62.712 C187.904,62.712 187.968,62.68 188,62.328 C187.968,62.168 187.744,62.168 187.584,62.168 L187.488,62.168 C186.912,62.2 185.568,62.488 184.384,62.968 C182.304,63.832 179.328,65.72 179.328,65.72 C179.264,65.784 179.232,65.848 179.232,65.944 C179.232,65.976 179.232,66.04 179.264,66.072 C179.808,67.128 180.032,68.888 180.032,70.712 C180.032,74.072 179.264,77.624 178.272,77.624 L178.24,77.624 C178.144,77.592 177.952,77.496 177.856,77.24 C177.728,76.856 177.664,76.28 177.664,75.512 C177.664,73.88 177.92,71.576 178.272,69.368 C178.549565,67.8876522 179.007289,65.4464575 179.491835,62.9576714 L179.72276,61.7788083 C180.340688,58.6448544 180.962783,55.6650435 181.28,54.68 C181.28,54.68 181.28,54.648 181.312,54.648 C181.344,54.648 181.408,54.712 181.536,54.744 L181.568,54.744 C181.824,54.744 181.952,54.424 181.952,54.392 C182.112,53.848 182.176,53.208 182.208,52.888 L182.208,52.728 C182.208,52.472 182.144,52.184 181.952,52.088 C181.92,52.056 181.856,52.024 181.792,52.024 C181.632,52.024 181.408,52.12 181.28,52.376 C180.993574,52.7033443 180.439727,54.9491406 179.86377,57.7902002 L179.730576,58.4557939 C179.574985,59.2432425 179.41916,60.0664611 179.267887,60.8996273 L179.139451,61.6156036 C178.864073,63.1695541 178.609113,64.7323679 178.405236,66.1386462 L178.314878,66.7759805 C178.185116,67.7135028 178.082098,68.5638033 178.016,69.272 C177.664,71.448 177.408,73.528 177.408,75.096 C177.408,75.928 177.504,76.632 177.664,77.08 C177.824,77.56 178.048,77.816 178.304,77.816 L178.368,77.816 Z M188.76864,68.376 C190.49664,68.376 193.12064,65.144 194.52864,63.032 C194.62464,62.904 194.88064,62.68 194.94464,62.552 C195.00864,62.52 195.04064,62.456 195.04064,62.36 C195.04064,62.232 194.91264,62.104 194.78464,62.104 C194.68864,62.104 194.56064,62.168 194.46464,62.296 C194.27264,62.808 193.95264,63.224 193.40864,64.088 C192.86464,64.92 189.95264,68.056 188.80064,68.152 L188.64064,68.152 C187.93664,68.152 187.61664,67.544 187.61664,66.104 C187.61664,65.528 187.68064,64.824 187.77664,63.96 C188.06464,61.176 189.56864,54.36 189.82464,53.144 C193.44064,52.376 197.08864,51.448 200.96064,51.096 C201.85664,51.032 202.78464,50.968 203.64864,50.968 C204.92864,50.968 206.08064,51.064 206.94464,51.192 C208.32064,51.384 209.15264,51.768 209.24864,52.504 C209.05664,52.632 209.02464,52.728 209.02464,52.824 L209.02464,52.952 C209.05664,53.08 209.18464,53.176 209.31264,53.176 C209.47264,53.176 209.63264,53.08 209.69664,52.888 C209.72864,52.792 209.72864,52.728 209.72864,52.664 C209.72864,52.6 209.72864,52.504 209.69664,52.44 C209.60064,51.512 208.57664,50.968 207.00864,50.744 C206.33664,50.648 205.56864,50.616 204.73664,50.616 C203.68064,50.616 202.49664,50.68 201.21664,50.808 C197.31264,51.16 193.60064,52.056 189.92064,52.824 C190.24064,52.024 191.87264,48.632 191.87264,47.544 C191.87264,47.416 191.84064,47.352 191.80864,47.288 C191.74464,47.192 191.64864,47.128 191.55264,47.128 C191.10464,47.128 190.43264,48.152 189.82464,50.52 C189.63264,51.224 189.44064,52.056 189.24864,52.984 C187.52064,53.336 186.04864,53.688 184.96064,53.944 C184.38464,53.752 182.65664,53.368 181.50464,53.368 C181.08864,53.368 180.73664,53.4 180.57664,53.56 L180.54464,53.56 C180.54464,53.56 180.54464,53.592 180.51264,53.624 C180.51264,53.656 180.48064,53.656 180.48064,53.688 C180.41664,53.816 180.28864,54.04 180.28864,54.264 C180.28864,54.552 180.51264,54.84 181.47264,54.84 C182.14464,54.84 183.23264,54.68 184.86464,54.264 C184.96064,54.264 185.02464,54.232 185.08864,54.2 C185.88864,54.552 186.78464,55.192 187.29664,55.928 C187.74464,56.6 188.03264,57.432 188.06464,58.456 C187.58464,60.92 187.23264,63.352 187.23264,65.144 C187.23264,66.296 187.39264,67.192 187.71264,67.736 C188.00064,68.184 188.35264,68.376 188.76864,68.376 Z M188.22464,57.624 C188.09664,56.888 187.84064,56.312 187.52064,55.8 C187.00864,55.096 186.20864,54.488 185.47264,54.136 C186.46464,53.88 187.74464,53.592 189.18464,53.272 C188.86464,54.616 188.51264,56.12 188.22464,57.624 Z M181.44064,54.552 C180.73664,54.552 180.54464,54.36 180.54464,54.168 C180.54464,54.072 180.60864,53.976 180.67264,53.88 C180.83264,53.688 181.21664,53.624 181.69664,53.624 C182.59264,53.624 183.77664,53.88 184.51264,54.072 C183.00864,54.424 182.04864,54.552 181.44064,54.552 Z" id="SendaGift" stroke="#1D1D1B" stroke-width="0.5"></path>
                <path d="M23.9576,65.12 C34.8376,65.12 44.2776,53.2 44.2776,37.52 C44.2776,21.76 35.4776,10.08 24.1976,10.08 C13.3176,10.08 3.8776,22.08 3.8776,37.84 C3.8776,53.6 12.6776,65.12 23.9576,65.12 Z M24.1976,64.4 C15.5576,64.4 10.5976,57.28 10.5976,37.68 C10.5976,17.92 15.3976,10.8 23.9576,10.8 C32.5976,10.8 37.5576,18.08 37.5576,37.68 C37.5576,57.44 32.7576,64.4 24.1976,64.4 Z M71.2392,65.12 C81.9592,65.12 89.4792,57.04 89.4792,46.08 C89.4792,36.16 82.5992,29.6 73.1592,29.6 C67.3192,29.6 61.0792,33.28 58.6792,40.4 L58.5192,40.32 C59.5592,25.44 66.8392,14.8 85.0792,10.24 L85.0792,9.84 C74.9192,11.36 66.8392,15.2 60.9192,21.12 C55.5592,26.48 52.1992,34.48 52.1992,43.44 C52.1992,56.08 60.1992,65.12 71.2392,65.12 Z M71.5592,64.4 C64.8392,64.4 58.5992,58.72 58.5992,48.16 C58.5992,35.36 66.2792,30.32 72.8392,30.32 C79.4792,30.32 83.0792,35.76 83.0792,46.8 C83.0792,58.08 79.4792,64.4 71.5592,64.4 Z M90.0408,81.2 L106.7608,42.96 L123.8008,4.32 L122.5208,4.32 L105.8008,42.64 L88.7608,81.2 L90.0408,81.2 Z" id="06/"></path>
            </g>
        </g>
    </g>
</svg>